<?xml version="1.0" encoding="utf-8"?>
<!-- Generator: Adobe Illustrator 19.0.0, SVG Export Plug-In . SVG Version: 6.00 Build 0)  -->
<svg version="1.1" id="Layer_1" xmlns="http://www.w3.org/2000/svg" xmlns:xlink="http://www.w3.org/1999/xlink" x="0px" y="0px"
	 width="975.8px" height="480.3px" viewBox="0 0 975.8 480.3" style="enable-background:new 0 0 975.8 480.3;" xml:space="preserve"
	>
<style type="text/css">
	.st0{fill:#FFFFFF;}
</style>
<g>
	<path class="st0" d="M150.8,472.2l-3.2,7h-3.8l13.4-29.2l13.4,29.2h-3.7l-3.2-7H150.8z M157.3,457.7l-5,11.3h10L157.3,457.7z"/>
	<path class="st0" d="M190.4,479.2h-4.2l-8.2-11.9h-1.4v11.9H173v-28h4.2c2.5,0,5.2,0,7.4,1.3c2.3,1.4,3.7,4,3.7,6.7
		c0,4-2.7,7.4-6.7,7.8L190.4,479.2z M176.5,464.5h1.1c3.6,0,7.4-0.7,7.4-5.1c0-4.4-4.2-5-7.6-5h-0.9V464.5z"/>
	<path id="XMLID_64_" class="st0" d="M213.5,456.6c-2-1.8-4.7-2.7-7.4-2.7c-6.3,0-11.1,5.2-11.1,11.4c0,6.1,4.7,11.4,11,11.4
		c2.8,0,5.4-1.1,7.5-2.9v4.1c-2.1,1.3-4.9,2-7.3,2c-8,0-14.6-6.3-14.6-14.4c0-8.3,6.6-14.7,14.9-14.7c2.5,0,4.9,0.6,7,1.9V456.6z"/>
	<polygon id="XMLID_63_" class="st0" points="234.2,462.5 234.2,451.2 237.7,451.2 237.7,479.2 234.2,479.2 234.2,465.8 
		220.9,465.8 220.9,479.2 217.4,479.2 217.4,451.2 220.9,451.2 220.9,462.5 	"/>
	<rect id="XMLID_62_" x="242.6" y="451.2" class="st0" width="3.5" height="28"/>
	<polygon id="XMLID_61_" class="st0" points="258.9,479.2 255.4,479.2 255.4,454.4 248.7,454.4 248.7,451.2 265.5,451.2 
		265.5,454.4 258.9,454.4 	"/>
	<polygon id="XMLID_60_" class="st0" points="268.3,451.2 283.3,451.2 283.3,454.4 271.8,454.4 271.8,462.2 283,462.2 283,465.4 
		271.8,465.4 271.8,476 283.3,476 283.3,479.2 268.3,479.2 	"/>
	<path id="XMLID_59_" class="st0" d="M308,456.6c-2-1.8-4.8-2.7-7.4-2.7c-6.3,0-11.1,5.2-11.1,11.4c0,6.1,4.7,11.4,11,11.4
		c2.7,0,5.4-1.1,7.5-2.9v4.1c-2.2,1.3-4.9,2-7.4,2c-8,0-14.6-6.3-14.6-14.4c0-8.3,6.7-14.7,14.9-14.7c2.4,0,4.9,0.6,7.1,1.9V456.6z"
		/>
	<polygon id="XMLID_58_" class="st0" points="319.7,479.2 316.2,479.2 316.2,454.4 309.6,454.4 309.6,451.2 326.3,451.2 
		326.3,454.4 319.7,454.4 	"/>
	<path id="XMLID_57_" class="st0" d="M332.1,451.2v16.5c0,4.6,1.4,8.8,6.7,8.8c5.4,0,6.8-4.2,6.8-8.8v-16.5h3.5v17.7
		c0,6.2-3.8,10.9-10.2,10.9c-6.4,0-10.3-4.7-10.3-10.9v-17.7H332.1z"/>
	<path class="st0" d="M371.3,479.2h-4.2l-8.2-11.9h-1.4v11.9h-3.5v-28h4.2c2.5,0,5.2,0,7.4,1.3c2.3,1.4,3.7,4,3.7,6.7
		c0,4-2.7,7.4-6.7,7.8L371.3,479.2z M357.4,464.5h1.1c3.6,0,7.4-0.7,7.4-5.1c0-4.4-4.2-5-7.6-5h-0.9V464.5z"/>
	<polygon id="XMLID_54_" class="st0" points="374.1,451.2 389.1,451.2 389.1,454.4 377.6,454.4 377.6,462.2 388.8,462.2 
		388.8,465.4 377.6,465.4 377.6,476 389.1,476 389.1,479.2 374.1,479.2 	"/>
	<path class="st0" d="M414.6,451.2h5.8c8.6,0,15.7,4.5,15.7,13.8c0,9.5-7,14.2-15.8,14.2h-5.7V451.2z M418.1,476h1.2
		c7.1,0,13.3-2.7,13.3-10.8c0-8.2-6.2-10.8-13.3-10.8h-1.2V476z"/>
	<polygon id="XMLID_51_" class="st0" points="439.6,451.2 454.6,451.2 454.6,454.4 443.1,454.4 443.1,462.2 454.3,462.2 
		454.3,465.4 443.1,465.4 443.1,476 454.6,476 454.6,479.2 439.6,479.2 	"/>
	<path id="XMLID_50_" class="st0" d="M471.4,456.5c-1.1-1.7-2.4-2.6-4.5-2.6c-2.2,0-4.7,1.5-4.7,4c0,2.2,2.2,3.3,3.9,4l2,0.8
		c4,1.6,7,3.8,7,8.4c0,5.1-3.9,8.7-9,8.7c-4.5,0-8.1-3.3-8.7-7.8l3.5-0.8c0,3.1,2.4,5.3,5.4,5.3c3,0,5.2-2.5,5.2-5.4
		c0-3-2.4-4.3-4.8-5.3l-1.9-0.8c-3.2-1.4-6.1-3.2-6.1-7.1c0-4.5,4-7.2,8.2-7.2c3.1,0,5.7,1.5,7.2,4.2L471.4,456.5z"/>
	<rect id="XMLID_49_" x="478.7" y="451.2" class="st0" width="3.5" height="28"/>
	<path id="XMLID_48_" class="st0" d="M513,465.1v1.1c0,7.7-5.4,13.6-13.3,13.6c-7.8,0-14.2-6.7-14.2-14.5c0-8.1,6.5-14.7,14.5-14.7
		c4.3,0,8.7,2,11.4,5.4l-2.4,2.3c-2-2.8-5.4-4.6-8.8-4.6c-6.3,0-11.2,5.1-11.2,11.4c0,5.8,4.8,11.4,10.9,11.4c4.3,0,9-3.8,9.2-8.3
		h-7.2v-3.2H513z"/>
	<polygon id="XMLID_47_" class="st0" points="516.1,449.9 537.1,471.9 537.1,451.2 540.6,451.2 540.6,480.3 519.6,458.3 
		519.6,479.2 516.1,479.2 	"/>
	<polygon id="XMLID_46_" class="st0" points="570.5,476 579,476 579,479.2 567,479.2 567,451.2 570.5,451.2 	"/>
	<path class="st0" d="M585.3,472.2l-3.2,7h-3.7l13.4-29.2l13.4,29.2h-3.8l-3.2-7H585.3z M591.7,457.7l-5,11.3h10L591.7,457.7z"/>
	<polygon id="XMLID_43_" class="st0" points="607.1,449.9 628.1,471.9 628.1,451.2 631.6,451.2 631.6,480.3 610.6,458.3 
		610.6,479.2 607.1,479.2 	"/>
	<path class="st0" d="M636.3,451.2h5.8c8.6,0,15.7,4.5,15.7,13.8c0,9.5-7,14.2-15.8,14.2h-5.7V451.2z M639.8,476h1.2
		c7.1,0,13.3-2.7,13.3-10.8c0-8.2-6.2-10.8-13.3-10.8h-1.2V476z"/>
	<path id="XMLID_40_" class="st0" d="M673.7,456.5c-1-1.7-2.4-2.6-4.5-2.6c-2.2,0-4.7,1.5-4.7,4c0,2.2,2.1,3.3,3.9,4l2,0.8
		c4,1.6,6.9,3.8,6.9,8.4c0,5.1-3.9,8.7-8.9,8.7c-4.5,0-8.1-3.3-8.7-7.8l3.5-0.8c0,3.1,2.4,5.3,5.4,5.3c3,0,5.2-2.5,5.2-5.4
		c0-3-2.4-4.3-4.8-5.3l-1.9-0.8c-3.2-1.4-6.1-3.2-6.1-7.1c0-4.5,4-7.2,8.2-7.2c3.1,0,5.7,1.5,7.2,4.2L673.7,456.5z"/>
	<path id="XMLID_39_" class="st0" d="M701.6,456.6c-2-1.8-4.8-2.7-7.4-2.7c-6.3,0-11.1,5.2-11.1,11.4c0,6.1,4.7,11.4,11,11.4
		c2.7,0,5.4-1.1,7.5-2.9v4.1c-2.2,1.3-4.9,2-7.4,2c-8,0-14.6-6.3-14.6-14.4c0-8.3,6.7-14.7,14.9-14.7c2.4,0,4.9,0.6,7.1,1.9V456.6z"
		/>
	<path class="st0" d="M709.7,472.2l-3.2,7h-3.8l13.4-29.2l13.4,29.2h-3.7l-3.2-7H709.7z M716.1,457.7l-5,11.3h9.9L716.1,457.7z"/>
	<path class="st0" d="M735.3,479.2h-3.5v-28h4c8.6,0,11.3,3,11.3,8.1c0,5.9-4.5,8.2-9.8,8.2h-2V479.2z M735.3,464.4h1.1
		c3.6,0,7.4-0.7,7.4-5.1c0-4.4-4.2-4.9-7.6-4.9h-0.9V464.4z"/>
	<rect id="XMLID_34_" x="750.1" y="451.2" class="st0" width="3.5" height="28"/>
	<polygon id="XMLID_33_" class="st0" points="758.5,449.9 779.5,471.9 779.5,451.2 783,451.2 783,480.3 762,458.3 762,479.2 
		758.5,479.2 	"/>
	<path id="XMLID_32_" class="st0" d="M813.5,465.1v1.1c0,7.7-5.4,13.6-13.2,13.6c-7.8,0-14.1-6.7-14.1-14.5
		c0-8.1,6.5-14.7,14.5-14.7c4.4,0,8.7,2,11.4,5.4l-2.4,2.3c-2-2.8-5.4-4.6-8.8-4.6c-6.3,0-11.2,5.1-11.2,11.4
		c0,5.8,4.8,11.4,10.9,11.4c4.4,0,9-3.8,9.2-8.3h-7.2v-3.2H813.5z"/>
	<path id="XMLID_31_" class="st0" d="M879.2,236.6c-11.5-0.9-114.9-7.3-91.3-5.3c12.4,1.8-40.8,4.8-41.6,4.4
		c-14.2-6.2-31.9,0.9-45.2-1.8c-26.6-5.3-51.4,0.9-77.1-0.9c-10.6-0.9-20.4-4.4-31-6.2c-0.9-0.9-2.7-2.7-3.5-3.5
		c-7.1-4.4-16,0-23.1-4.4c-8.9-4.4-19.5,1.8-26.6-5.3c-2.7-1.8-3.5-6.2-6.2-6.2c-10.6-1.8-23,0.9-30.1-8.9c-5.3-6.2-3.5-15.1-0.9-23
		c0.9-3.6,1.8-7.1,3.6-11.5c0-1.8,4.4-0.9,7.1-0.9c-1.8,0.9-0.9,2.7-0.9,3.5c5.3,0,11.5-1.8,15.1,0.9c4.4,2.6-0.9,11.5,4.4,12.4
		c10.6,2.7,22.2-5.3,31-0.9c6.2,2.7,11.5,13.3,16.8,8.8c2.7-1.8,7.1,0,8-4.4c21.2,0.9,41.6-5.3,62.9-3.6c-0.9,0.9,1.8,1.8,0.9,2.7
		c5.3,0,9.7,0.9,14.2-2.7c3.6-2.7,8.9-1.8,10.6,0.9c2.7,1.8,5.3,2.7,8,1.8c1.7-0.9,1.7-2.7,1.7-4.4c0.9-2.6,3.6-2.6,6.2-3.6
		c0.9-0.9,1.8-2.7,2.7-3.5c3.5-2.6,8,0,12.4-1.8c4.4-1.8,8.9-2.7,13.3-5.3c0.9,0,0.9-5.3,0-5.3c-3.5-1.8-9.7,0.9-11.5-1.8
		c-1.8-1.8-0.9-6.2-0.9-9.8c-8,0.9-15.9,0-20.4-5.3c-3.5-3.6,1.8-9.8,4.4-15.1h2.7c1.8-2.7,0.9-6.2-0.9-6.2
		c-6.2-0.9-15-2.7-12.4-10.6c-5.3,0.9-15.1-2.7-16,5.3c-7.1,0-16,2.7-19.5-1.8c-4.4-5.3,1.8-12.4,8-17.7c1.8-0.9,0.9-6.2-0.9-9.7
		c-2.7-3.5,0.9-10.7-2.7-15.1c-2.7-1.8-7.1,0-9.8-1.8c-4.4-4.4-7.1-10.7-10.6-15.1c-3.5-3.5-11.5,1.8-16.8-0.9c-0.9,0,0.9-3.6,0-5.3
		c-2.7-2.7-7.1,0-10.6-0.9c-1.8-1.8-3.6-4.4-3.6-7.1c-1.8,0-2.6-0.9-4.4,0.9c-5.3,4.4-12.4,1.8-17.7,6.2c-4.4,2.6-7.1,5.3-12.4,4.4
		c0,2.7,0.9,6.2,0,7.1c-3.5,2.7-8.9,1.8-11.5-1.8c-3.5-3.5,0-8.8-0.9-14.2c0-0.9,2.7-1.8,2.7-1.8c3.5-7.1-2.7-8.9-8-13.3
		c-0.9,0,0.9-3.6,0-5.3c-2.7-3.6-8-4.4-12.4-3.6v-3.5c-5.3-1.8-8.9,2.7-14.2,3.5c-13.3,2.7-26.6-0.9-39.9,1.8
		c-0.9,0.9-1.8,2.7-2.7,2.7c-2.7,2.7-7.1,0.9-9.7-0.9c-1.8-1.8-0.9-5.3-2.7-6.2c-3.5-3.6-8.9,5.3-14.2,0.8c-0.9-1.7-0.9-4.4-2.7-5.3
		c-2.7-0.9-7.1,0.9-8.9-0.9c-1.8-2.6,0-7.1-1.8-8c-4.4-1.8-9.7-0.9-14.2-0.9c0.9-1.8-1.8,0-1.8-1.8c-8.9,0.9-17.7-1.8-26.6,3.5
		c-4.4,2.7-4.4,12.6-8,15.3c-1.8,1.8-7.1-3.8-10.6-2c-3.5,2.7-6.2,5.3-11.5,3.6c-1.8-0.9,0-5.3-0.9-5.3c-6.2-2.7-8,4.4-8.9,9.7
		c-0.9,0.9-2.7,1.8-3.5,2.7c-0.9,4.4,1.8,10.6-0.9,12.4c-2.7,2.7-10.6,1.8-12.4-1.8c-1.8-3.5-0.9-8-0.9-12.4
		c-6.2,0.9-13.3,3.6-17.7,8c-0.9,1.8-6.2,0-6.2,0.9c-2.7,6.2,5.5,11.3,3.8,17.5c-0.9,4.4-11.8,6.4-15.3,8.2
		c-7.1,5.3-14.2,9.7-22.1,15.1c-3.5,2.7,0.9,8.9,0,13.3c-0.9,1.8-2.7,0-3.5,0.9c-0.9,2.7,2.6,8.4,1.7,11.1
		c-4.4,7.1-15.1,6.7-20.4,3.1c-3.5-1.8-7.1-4.4-11.5-3.6v2.7c-5.3,1.8-6.2-2.7-9.7-5.3c-2.7-2.6-8-1.8-11.5,1.8
		c-1.8,2.7-3.6,2.7-7.1,2.7c-0.9,0-0.9,1.8-0.9,2.7c-3.6,0.9-6.2,2.7-8,4.4c-0.9,1.8,0,4.4,0,7.1c6.2-0.9,13.3,0,16.8,2.7
		c4.4,2.6-2.7,8-8,8.8c-3.5,0-1.8,4.4-2.6,8h-2.7c-0.9,1.8,0,4.4,0,4.4c-7.1,1.8-13.3,0-20.4,1.8c-2.7,0-6.2,2.6-6.2,5.3
		c-2.7,8-11.5,8.9-17.7,8c0,3.5-1.8,8.8,0.9,9.7c3.6,1.8,8.9,0,13.3,1.8v4.4c8,0,16-0.9,23.9,2.7v1.8c3.5,0,11.5,1.8,11.5-4.5h10.6
		c0-3.5-0.9-8.9,2.7-9.7c6.2-1.8,10.6-4.4,15.9-3.5c-1.8,3.5-1.8,8,0.9,9.8c2.7,1.8,7.1,1.8,10.6,0.9c2.7-1.8,5.3-1.8,8-1.8
		c-0.9-2.7,3.6-2.7,2.7-5.3c4.4,0,8.8-0.9,13.3,0v2.7c-4.4,3.6-2.6,8.9-1.8,13.3h2.7c1.8,2.7,0,7.1,3.5,7.1
		c5.3,0.9,13.3,2.7,17.7-2.7c1.8-1.8,10.6-2.7,11.5,1.8c0,1.8-4.4,6.2-2.6,7.1c6.2,2.7,13.3,0.9,19.5-1.8c4.4-1.8,8-3.5,11.5-6.2
		c4.4-3.5,8.9,2.7,13.3,0.9c1.8,0,3.5,0.9,5.3,0c3.5-2.7,8-2.7,9.7-5.3c5.3-4.4,11.5-3.6,16.8-7.1c4.4-2.6,9.7-1.8,14.2,0.9
		c2.6,2.7,4.4,5.3,7.1,7.1c6.2,1.8,10.6,5.3,14.2,9.7c2.7,1.8-0.9,6.2-2.7,9.7c-4.4,7.1,7.1,11.5,9.7,16.8
		c2.7,5.3,1.8,13.3-4.4,14.2c-11.5,2.7-13.3,5.3-24.8,8c-6.2,0.9-20.4-3.5-26.6-1.8c-5.3,1.8-16.8,2.7-33.7,2.7
		c-1.3,0-22.6-0.5-43.4,0c-20.4,0.9-43.9,5.8-48.7,5.3c-21.3-2-47.4-3.1-69.1-2.7c-20.4,0.4-90.4,0-110.8,3.5c0,0,81.5-1.3,88.6-1.8
		c7.1-0.4,96.6,5.3,128.5,2.7c31.9-2.7,142.7-3.5,162.2-3.5c19.5,0,135.6-6.2,149.8-1.7c14.2,4.4,27.5,1.7,33.7,0.9
		c6.2-0.9,128.5-0.9,152.4-1.8C810.1,238.4,866.8,241,879.2,236.6"/>
	<path id="XMLID_30_" class="st0" d="M570.1,248.6h61.4v28.8h-2.7c-2.4-20.4-10-24-24.4-24c-5.8,0-7.8,0.6-7.8,6.7v33.3
		c10.2,0.1,15.6-3.6,18.3-18.8h2.7l-2.5,44.4h-2.8c0.2-16.5-5.2-20.8-15.8-20.8v34.7c0,6.3,2,8,8.9,8c10.4,0,21.3-3.7,28-25.4h3
		l-4.2,29.9h-62.3V342c6.1-0.9,9.4-1.3,9.4-10.2v-69.5c0-9.5-4.5-9.7-9.4-10.2V248.6z"/>
	<path id="XMLID_29_" class="st0" d="M633.5,254h56v27.2H687c-2.2-14.1-4.9-22.7-22.2-22.7c-5.4,0-7.2,0.6-7.2,6.4v31.4
		c12.5,0.3,14-9.3,17.9-16.4h2.5l-4.3,38.9h-2.5c0.7-8-1-17.9-13.6-17.9v31.6c0,9,4,9.2,11,9.6v3.4h-34.2v-3.4
		c3.7-0.8,6.8-1.2,6.8-9.6V267c0-8.9-4.1-9.2-7.8-9.6V254z"/>
	<path id="XMLID_28_" class="st0" d="M691.5,254h55.3v27.2h-2.4c-2.2-14.1-4.9-22.7-22.2-22.7c-5.4,0-7.2,0.6-7.2,6.4v31.4
		c12.4,0.3,14-9.3,16.3-16.4h2.5l-3.2,39.7h-2.5c1.1-8.9-0.5-18.8-13.1-18.8v31.6c0,9,4,9.2,11,9.6v3.4h-36.2v-3.4
		c5.7-0.8,8.8-1.2,8.8-9.6V267c0-8.9-4.1-9.2-7.2-9.6V254z"/>
	<path id="XMLID_27_" class="st0" d="M748.9,254h56.3v27.2h-2.5c-2.3-19.3-9.4-22.7-23-22.7c-5.5,0-7.3,0.6-7.3,6.4v31.4
		c9.6,0.1,14.8-3.4,20.1-16.4h2.6l-3.8,38.9h-2.6c-1.2-13.8-6.3-17.9-16.3-17.9v32.8c0,6,1.9,7.6,8.4,7.6c9.9,0,20.1-3.5,26.4-24
		h2.8l-4,28.2h-58.8v-3.4c5.7-0.8,8.9-1.2,8.9-9.6V267c0-8.9-4.2-9.2-7.2-9.6V254z"/>
	<path id="XMLID_26_" class="st0" d="M873.7,328.4c-7.3,11.2-15.2,19.8-28,19.8c-23.4,0-36.1-22.3-36.1-47.6
		c0-27.5,14.5-48.6,35.6-48.6c9,0,16.8,6.6,19.4,6.6c2.7,0,3.6-2.8,2.6-4.2h2.7l-3.3,25.7h-1.2c0.5-7.8-8-23.6-19.5-23.6
		c-14.7,0-18.6,20.7-18.6,43.7c0,8.1,0.6,21.1,4.3,29.8c4.2,9.8,12.1,11.8,15.3,11.8c7.8,0,15.4-4.1,23.7-16.7L873.7,328.4z"/>
	<path id="XMLID_25_" class="st0" d="M912.7,345.6h-35.9v-3.4c7.3-0.8,9.8-1.1,9.8-12.5v-71.5c-7,0.5-17.4,1.2-19.4,22.9h-2.9
		l0.3-27.2h60.3l0.2,27.2h-2.9c-2-21.7-12.4-22.4-19.3-22.9v71.5c0,11.5,2.4,11.8,9.8,12.5V345.6z"/>
	<path id="XMLID_24_" class="st0" d="M970.1,281.2c-1.8-9.5-7.9-25.1-19.7-25.1c-5.2,0-10.7,4.1-10.7,12.9c0,7.3,1.9,10.3,10.3,16
		l14.8,9.9c3.4,2.3,11,10.2,11,24.9c0,11.9-6.4,28.3-24.9,28.3c-9.6,0-14.1-4.6-17.2-4.6c-2.1,0-2.6,2.4-3,4.6h-2.9v-33.5h2.9
		c2,13.7,7.9,29,20.6,29c12.1,0,12.6-13.4,12.6-15.2c0-9.1-4.7-12.3-11.3-16.5l-6.7-4.3c-17.2-11.1-17.2-22.8-17.2-29
		c0-8.3,3.1-26.7,22.2-26.7c8,0,12.8,4.5,15.7,4.5c2.3,0,2.8-2.1,3.3-4.6h3v29.4H970.1z"/>
	<path id="XMLID_23_" class="st0" d="M63.8,345.6H2.3V342c6-1,9.2-1.4,9.2-10.2v-69.5c0-9.5-4.4-9.7-9.2-10.2v-3.6h37.1v3.6
		c-7.5,0.5-10.7,0.6-10.7,13.2v67.7c0,6.9,2.3,8,9.5,8c16.1,0,22-11.9,30.9-27.2h3.1L63.8,345.6z"/>
	<path class="st0" d="M123.5,345.6H90.9v-3.4c6.2-0.7,8-0.8,8-5.3c0-3.6-3.2-13.7-4.6-18H71.7c-2.8,9.8-4.4,15.3-4.4,17.5
		c0,5.2,4.8,5.6,8.2,5.8v3.4H55.1v-3.4c5.4-1,6.8-5.7,9.9-15.9l22.3-74.3h2.8l22.4,71.3c4.5,14.5,6.1,19.1,11,18.8V345.6z
		 M92.8,313.6l-10.2-32.9l-9.5,32.9H92.8z"/>
	<path id="XMLID_20_" class="st0" d="M120.4,342.2c6-0.9,8.9-1.9,8.9-10.8v-64.3c-5.6-9.4-7.2-9.8-8.6-9.8V254h21.2l34.9,57.9h0.2
		v-41.1c0-8.1-1.2-12.6-9.3-13.5V254h21.6v3.4c-7.2,1.2-7.8,4.4-7.8,10.8V348h-2.8l-44.7-73.5h-0.2v54.2c0,9.8,2.1,12.4,9.5,13.4
		v3.4h-22.8V342.2z"/>
	<path class="st0" d="M190.8,342.2c6.3,0,8.3-3.9,8.3-8.9v-66.8c0-8.3-4.4-8.6-8.3-9.1V254h30.7c28.1,0,37.3,23.6,37.3,44.4
		c0,25-10.8,46.1-36.2,47.2h-31.8V342.2z M215.4,333c0,5.4,0.9,7.9,5.8,7.9c11.2,0,20.1-8.7,20.1-41.1c0-12.3-2.3-41.2-19.6-41.2
		c-6.4,0-6.3,3.4-6.2,6.4V333z"/>
	<path id="XMLID_17_" class="st0" d="M307.8,281.2c-1.8-9.5-7.8-25.1-19.7-25.1c-5.2,0-10.7,4.1-10.7,12.9c0,7.3,1.9,10.3,10.4,16
		l14.8,9.9c3.4,2.3,11.1,10.2,11.1,24.9c0,11.9-6.4,28.3-24.9,28.3c-9.5,0-14.1-4.6-17.2-4.6c-2.1,0-2.6,2.4-3,4.6h-2.9v-33.5h2.9
		c2,13.7,7.8,29,20.6,29c12.1,0,12.6-13.4,12.6-15.2c0-9.1-4.7-12.3-11.3-16.5l-6.7-4.3c-17.2-11.1-17.2-22.8-17.2-29
		c0-8.3,3.1-26.7,22.2-26.7c8,0,12.8,4.5,15.7,4.5c2.3,0,2.8-2.1,3.3-4.6h3v29.4H307.8z"/>
	<path id="XMLID_16_" class="st0" d="M378.9,328.4c-7.3,11.2-15.2,19.8-28,19.8c-23.4,0-36.1-22.3-36.1-47.6
		c0-27.5,14.5-48.6,35.6-48.6c9,0,16.8,6.6,19.4,6.6c2.7,0,3.6-2.8,4.6-6.2h2.7V284h-2.5c-3.5-11.8-12-27.6-23.4-27.6
		c-14.7,0-18.6,20.7-18.6,43.7c0,8.1,0.6,21.1,4.3,29.8c4.2,9.8,12.2,11.8,15.3,11.8c7.8,0,15.4-4.1,23.7-16.7L378.9,328.4z"/>
	<path class="st0" d="M433.5,345.6h-17.9v-3.4c-2,1-5.6-2-6.7-5.3c-1.1-3.5-3.2-13.7-4.6-18h-22.6c-2.8,9.8-4.4,15.3-4.4,17.5
		c0,5.2,4.8,5.6,8.2,5.8v3.4h-20.4v-3.4c5.4-1,6.8-5.7,9.8-15.9l22.3-74.3h2.8l22.4,71.3c4.5,14.5,6.1,19.1,11,18.8V345.6z
		 M402.9,313.6l-10.1-32.9l-9.5,32.9H402.9z"/>
	<path class="st0" d="M426.4,342.2c4.9-1.1,5.1-1.2,5.8-1.9c1.2-1.2,2.6-3,2.6-10.6v-59.9c0-11.4-3.1-11.8-8.4-12.5V254h32.4
		c8.1,0,26.3,2,26.3,24.9c0,4.7-1.1,14.4-9.2,20.5c-6.4,4.9-11.6,5-24.8,5.2v25.2c0,11,1.9,11.3,8.8,12.5v3.4h-33.6V342.2z
		 M451.1,299.8c12.2,0.3,16.7-3.6,16.7-20.5c0-15.5-3.6-20.6-11.9-20.6c-3.4,0-4.7,1.8-4.8,4.7V299.8z"/>
	<path id="XMLID_11_" class="st0" d="M483.8,254h58v27.2h-2.5c-2.3-19.3-9.5-22.7-23-22.7c-5.5,0-7.3,0.6-7.3,6.4v31.4
		c9.6,0.1,14.8-3.4,17.8-16.4h2.6l-4.1,38.9h-2.6c1.4-13.8-3.7-17.9-13.7-17.9v32.8c0,6,1.9,7.6,8.4,7.6c9.9,0,20.1-3.5,26.5-24h2.8
		l-4,28.2h-58.8v-3.4c5.7-0.8,8.9-1.2,8.9-9.6V267c0-8.9-4.2-9.2-8.9-9.6V254z"/>
	<path id="XMLID_10_" class="st0" d="M436,379.9c-0.1,4.1-0.4,7.6-2.9,11.2c-2.8,3.9-7,5.5-11.7,5.5c-8.9,0-15.1-6-15.1-14.9
		c0-9.2,6.2-15.2,15.3-15.2c5.8,0,10.3,2.6,12.8,7.9l-7,2.9c-1-2.7-3.1-4.5-6.1-4.5c-4.8,0-7.3,4.6-7.3,8.9c0,4.4,2.6,8.9,7.5,8.9
		c3.2,0,5.7-1.7,5.9-4.9h-6v-5.8H436z"/>
	<path class="st0" d="M468.6,395.7h-9.2l-6.9-10.9h-0.1v10.9H445v-28.3h11c5.6,0,9.8,2.7,9.8,8.7c0,3.9-2.2,7.3-6.2,8L468.6,395.7z
		 M452.4,380.1h0.7c2.4,0,5.1-0.4,5.1-3.5c0-3.1-2.7-3.5-5.1-3.5h-0.7V380.1z"/>
	<path class="st0" d="M506.1,381c0,9.2-6.6,15.6-15.7,15.6c-9.1,0-15.6-6.4-15.6-15.6c0-8.6,7.5-14.6,15.6-14.6
		C498.6,366.5,506.1,372.5,506.1,381 M482.4,381.1c0,4.9,3.6,8.5,8,8.5c4.4,0,8-3.6,8-8.5c0-3.9-3.6-7.5-8-7.5
		C486,373.6,482.4,377.2,482.4,381.1"/>
	<path id="XMLID_5_" class="st0" d="M539.7,367.4v15.9c0,3.6-0.2,7.2-3,10c-2.4,2.3-6.1,3.1-9.4,3.1c-3.3,0-7-0.8-9.4-3.1
		c-2.8-2.7-3-6.3-3-10v-15.9h7.4v14.9c0,3.7,0.3,7.7,5,7.7s5-4,5-7.7v-14.9H539.7z"/>
	<path class="st0" d="M550,367.4h11.3c6.1,0,10.3,2.8,10.3,9.3c0,6.7-3.6,9.6-10,9.6h-4.2v9.4H550V367.4z M557.3,380.4h1.2
		c2.7,0,5.3,0,5.3-3.5c0-3.6-2.4-3.6-5.3-3.6h-1.2V380.4z"/>
	<g id="XMLID_2_">
		<rect id="XMLID_84_" x="0" y="383.4" class="st0" width="392.8" height="1"/>
	</g>
	<g id="XMLID_1_">
		<rect id="XMLID_83_" x="581.9" y="383.4" class="st0" width="392.8" height="1"/>
	</g>
</g>
</svg>
