<?xml version="1.0" encoding="utf-8"?>
<!-- Generator: Adobe Illustrator 19.0.0, SVG Export Plug-In . SVG Version: 6.00 Build 0)  -->
<svg version="1.1" id="Layer_1" xmlns="http://www.w3.org/2000/svg" xmlns:xlink="http://www.w3.org/1999/xlink" x="0px" y="0px"
	 width="1728.4px" height="850.8px" viewBox="0 0 1728.4 850.8" style="enable-background:new 0 0 1728.4 850.8;"
	 xml:space="preserve">
<style type="text/css">
	.st0{fill:#FFFFFF;}
	.st1{fill:#D1252B;}
</style>
<path class="st0" d="M267.2,836.4l-5.6,12.5h-6.6l23.7-51.7l23.7,51.7h-6.6l-5.7-12.5H267.2z M278.6,810.7l-8.8,20.1h17.6
	L278.6,810.7z"/>
<path class="st0" d="M337.2,848.8h-7.5l-14.6-21h-2.5v21h-6.2v-49.6h7.5c4.4,0,9.1,0,13.1,2.3c4.1,2.4,6.5,7.1,6.5,11.8
	c0,7.1-4.7,13-11.9,13.9L337.2,848.8z M312.6,822.7h2c6.3,0,13.2-1.2,13.2-9.1c0-7.8-7.4-8.9-13.5-8.9h-1.6V822.7z"/>
<path class="st0" d="M378.2,808.7c-3.6-3.2-8.4-4.9-13.1-4.9c-11.1,0-19.6,9.3-19.6,20.3c0,10.8,8.4,20.1,19.4,20.1
	c4.9,0,9.5-1.9,13.2-5.1v7.3c-3.8,2.2-8.7,3.5-13,3.5c-14.2,0-25.9-11.2-25.9-25.6c0-14.7,11.8-26.1,26.4-26.1
	c4.4,0,8.8,1.1,12.5,3.3V808.7z"/>
<polygon class="st0" points="414.8,819.2 414.8,799.2 421,799.2 421,848.8 414.8,848.8 414.8,825 391.2,825 391.2,848.8 385,848.8 
	385,799.2 391.2,799.2 391.2,819.2 "/>
<rect x="429.7" y="799.3" class="st0" width="6.2" height="49.6"/>
<polygon class="st0" points="458.6,848.8 452.4,848.8 452.4,804.9 440.6,804.9 440.6,799.3 470.3,799.3 470.3,804.9 458.6,804.9 "/>
<polygon class="st0" points="475.2,799.3 501.8,799.3 501.8,804.9 481.4,804.9 481.4,818.8 501.2,818.8 501.2,824.4 481.4,824.4 
	481.4,843.2 501.8,843.2 501.8,848.8 475.2,848.8 "/>
<path class="st0" d="M545.6,808.7c-3.6-3.2-8.5-4.9-13.1-4.9c-11.1,0-19.6,9.3-19.6,20.3c0,10.8,8.4,20.1,19.5,20.1
	c4.9,0,9.6-1.9,13.2-5.1v7.3c-3.8,2.2-8.7,3.5-13,3.5c-14.2,0-25.9-11.2-25.9-25.6c0-14.7,11.8-26.1,26.4-26.1
	c4.3,0,8.7,1.1,12.5,3.3V808.7z"/>
<polygon class="st0" points="566.3,848.8 560.1,848.8 560.1,804.9 548.3,804.9 548.3,799.3 578,799.3 578,804.9 566.3,804.9 "/>
<path class="st0" d="M588.2,799.3v29.2c0,8.1,2.4,15.6,12,15.6c9.5,0,12-7.5,12-15.6v-29.2h6.2v31.3c0,10.9-6.8,19.2-18.1,19.2
	c-11.4,0-18.2-8.3-18.2-19.2v-31.3H588.2z"/>
<path class="st0" d="M657.7,848.8h-7.5l-14.6-21h-2.6v21h-6.2v-49.6h7.5c4.4,0,9.1,0,13.1,2.3c4.1,2.4,6.5,7.1,6.5,11.8
	c0,7.1-4.7,13-11.9,13.9L657.7,848.8z M633.1,822.7h2c6.3,0,13.1-1.2,13.1-9.1c0-7.8-7.4-8.9-13.5-8.9h-1.6V822.7z"/>
<polygon class="st0" points="662.6,799.3 689.2,799.3 689.2,804.9 668.8,804.9 668.8,818.8 688.6,818.8 688.6,824.4 668.8,824.4 
	668.8,843.2 689.2,843.2 689.2,848.8 662.6,848.8 "/>
<path class="st0" d="M734.3,799.2h10.3c15.2,0,27.8,8,27.8,24.5c0,16.9-12.4,25.1-28,25.1h-10.1V799.2z M740.5,843.2h2.2
	c12.6,0,23.5-4.7,23.5-19.2c0-14.5-10.9-19.1-23.5-19.1h-2.2V843.2z"/>
<polygon class="st0" points="778.6,799.3 805.2,799.3 805.2,804.9 784.8,804.9 784.8,818.8 804.7,818.8 804.7,824.4 784.8,824.4 
	784.8,843.2 805.2,843.2 805.2,848.8 778.6,848.8 "/>
<path class="st0" d="M834.9,808.6c-1.9-3.1-4.2-4.7-8-4.7c-3.9,0-8.3,2.7-8.3,7c0,3.9,3.8,5.9,6.9,7.1l3.5,1.4
	c7,2.8,12.3,6.7,12.3,15c0,9-7,15.4-15.9,15.4c-8,0-14.3-5.9-15.3-13.9l6.2-1.3c-0.1,5.5,4.3,9.4,9.6,9.4c5.3,0,9.2-4.5,9.2-9.6
	c0-5.4-4.3-7.7-8.6-9.4l-3.4-1.4c-5.7-2.4-10.8-5.7-10.8-12.6c0-8,7.1-12.8,14.6-12.8c5.5,0,10.1,2.7,12.8,7.5L834.9,808.6z"/>
<rect x="848" y="799.3" class="st0" width="6.2" height="49.6"/>
<path class="st0" d="M908.6,823.8v2c0,13.6-9.6,24.1-23.5,24.1c-13.9,0-25.1-11.9-25.1-25.7c0-14.3,11.4-26,25.7-26
	c7.7,0,15.3,3.5,20.2,9.6l-4.3,4.2c-3.6-4.9-9.5-8.1-15.6-8.1c-11.1,0-19.8,9-19.8,20.1c0,10.4,8.5,20.2,19.3,20.2
	c7.7,0,16-6.7,16.2-14.7h-12.8v-5.6H908.6z"/>
<polygon class="st0" points="914.1,796.9 951.4,835.9 951.4,799.3 957.5,799.3 957.5,850.8 920.3,811.9 920.3,848.8 914.1,848.8 "/>
<polygon class="st0" points="1010.5,843.2 1025.6,843.2 1025.6,848.8 1004.4,848.8 1004.4,799.2 1010.5,799.2 "/>
<path class="st0" d="M1036.7,836.4l-5.7,12.5h-6.6l23.7-51.7l23.7,51.7h-6.6l-5.7-12.5H1036.7z M1048.1,810.7l-8.8,20.1h17.6
	L1048.1,810.7z"/>
<polygon class="st0" points="1075.3,796.9 1112.5,835.9 1112.5,799.3 1118.7,799.3 1118.7,850.8 1081.5,811.9 1081.5,848.8 
	1075.3,848.8 "/>
<path class="st0" d="M1127,799.2h10.3c15.2,0,27.8,8,27.8,24.5c0,16.9-12.3,25.1-28,25.1H1127V799.2z M1133.2,843.2h2.2
	c12.6,0,23.5-4.7,23.5-19.2c0-14.5-10.9-19.1-23.5-19.1h-2.2V843.2z"/>
<path class="st0" d="M1193.3,808.6c-1.8-3.1-4.2-4.7-8-4.7c-3.9,0-8.3,2.7-8.3,7c0,3.9,3.8,5.9,6.9,7.1l3.5,1.4
	c7,2.8,12.3,6.7,12.3,15c0,9-7,15.4-15.8,15.4c-8,0-14.3-5.9-15.3-13.9l6.2-1.3c-0.1,5.5,4.3,9.4,9.6,9.4c5.3,0,9.1-4.5,9.1-9.6
	c0-5.4-4.3-7.7-8.5-9.4l-3.4-1.4c-5.7-2.4-10.8-5.7-10.8-12.6c0-8,7.1-12.8,14.6-12.8c5.5,0,10.1,2.7,12.7,7.5L1193.3,808.6z"/>
<path class="st0" d="M1242.7,808.7c-3.6-3.2-8.4-4.9-13.1-4.9c-11.1,0-19.6,9.3-19.6,20.3c0,10.8,8.4,20.1,19.5,20.1
	c4.9,0,9.5-1.9,13.2-5.1v7.3c-3.8,2.2-8.7,3.5-13,3.5c-14.1,0-25.9-11.2-25.9-25.6c0-14.7,11.8-26.1,26.4-26.1
	c4.3,0,8.7,1.1,12.5,3.3V808.7z"/>
<path class="st0" d="M1257.1,836.4l-5.6,12.5h-6.6l23.7-51.7l23.7,51.7h-6.6l-5.7-12.5H1257.1z M1268.5,810.7l-8.8,20.1h17.6
	L1268.5,810.7z"/>
<path class="st0" d="M1302.4,848.8h-6.2v-49.6h7.1c15.3,0,20,5.3,20,14.3c0,10.4-7.9,14.5-17.4,14.5h-3.6V848.8z M1302.4,822.5h2
	c6.3,0,13.2-1.2,13.2-9.1c0-7.7-7.4-8.7-13.5-8.7h-1.6V822.5z"/>
<rect x="1328.6" y="799.3" class="st0" width="6.2" height="49.6"/>
<polygon class="st0" points="1343.5,796.9 1380.7,835.9 1380.7,799.3 1386.9,799.3 1386.9,850.8 1349.7,811.9 1349.7,848.8 
	1343.5,848.8 "/>
<path class="st0" d="M1440.9,823.8v2c0,13.6-9.6,24.1-23.5,24.1c-13.9,0-25-11.9-25-25.7c0-14.3,11.4-26,25.7-26
	c7.7,0,15.3,3.5,20.2,9.6l-4.3,4.2c-3.6-4.9-9.6-8.1-15.6-8.1c-11.1,0-19.8,9-19.8,20.1c0,10.4,8.5,20.2,19.2,20.2
	c7.7,0,16-6.7,16.3-14.7h-12.8v-5.6H1440.9z"/>
<path class="st1" d="M1557.3,419.1c-20.4-1.6-203.6-12.9-161.7-9.4c22,3.1-72.3,8.4-73.8,7.8c-25.1-11-56.5,1.6-80-3.1
	c-47.1-9.4-91,1.5-136.5-1.6c-18.8-1.6-36.1-7.8-55-11c-1.6-1.6-4.7-4.7-6.3-6.3c-12.6-7.8-28.3,0-40.8-7.8
	c-15.7-7.9-34.5,3.1-47.1-9.4c-4.7-3.2-6.3-11-11-11c-18.8-3.2-40.8,1.6-53.3-15.7c-9.4-11-6.3-26.7-1.6-40.8
	c1.6-6.3,3.1-12.6,6.3-20.5c0-3.1,7.8-1.5,12.6-1.5c-3.2,1.5-1.6,4.7-1.6,6.2c9.4,0,20.4-3.1,26.7,1.6c7.8,4.7-1.6,20.4,7.8,21.9
	c18.8,4.7,39.3-9.4,55-1.5c11,4.7,20.4,23.5,29.8,15.7c4.7-3.1,12.6,0,14.2-7.8c37.6,1.6,73.7-9.4,111.4-6.3
	c-1.6,1.6,3.1,3.2,1.6,4.7c9.4,0,17.2,1.6,25.1-4.7c6.3-4.7,15.7-3.1,18.9,1.6c4.7,3.1,9.4,4.7,14.1,3.1c3.1-1.6,3.1-4.7,3.1-7.9
	c1.6-4.7,6.3-4.7,11-6.3c1.6-1.6,3.1-4.7,4.7-6.3c6.3-4.7,14.1,0,22-3.1c7.9-3.1,15.7-4.7,23.5-9.4c1.6,0,1.6-9.4,0-9.4
	c-6.3-3.1-17.3,1.6-20.4-3.1c-3.1-3.1-1.6-11-1.6-17.3c-14.1,1.6-28.2,0-36.1-9.4c-6.2-6.3,3.1-17.3,7.9-26.7h4.7
	c3.2-4.7,1.6-11-1.6-11c-11-1.5-26.7-4.7-21.9-18.8c-9.4,1.6-26.7-4.7-28.3,9.4c-12.6,0-28.3,4.7-34.5-3.2
	c-7.8-9.4,3.2-21.9,14.1-31.4c3.1-1.6,1.6-11-1.6-17.2c-4.7-6.3,1.6-18.9-4.7-26.7c-4.7-3.1-12.6,0-17.3-3.1
	c-7.9-7.9-12.6-18.9-18.9-26.7c-6.3-6.3-20.4,3.1-29.8-1.6c-1.6,0,1.6-6.3,0-9.4c-4.7-4.7-12.5,0-18.8-1.6
	c-3.1-3.2-6.3-7.9-6.3-12.6c-3.1,0-4.7-1.6-7.8,1.6c-9.4,7.9-22,3.1-31.4,11c-7.9,4.7-12.5,9.4-22,7.8c0,4.7,1.6,11,0,12.5
	c-6.3,4.7-15.7,3.1-20.4-3.1c-6.3-6.2,0-15.7-1.5-25.1c0-1.6,4.7-3.1,4.7-3.1c6.3-12.6-4.7-15.7-14.1-23.5c-1.6,0,1.5-6.3,0-9.4
	c-4.7-6.3-14.2-7.9-22-6.3v-6.2c-9.4-3.1-15.7,4.7-25.1,6.2c-23.5,4.7-47.1-1.6-70.6,3.1c-1.6,1.6-3.1,4.7-4.7,4.7
	c-4.7,4.7-12.5,1.6-17.3-1.5c-3.1-3.2-1.6-9.5-4.7-11c-6.3-6.3-15.7,9.4-25.1,1.5c-1.6-3.1-1.6-7.8-4.7-9.4
	c-4.7-1.6-12.6,1.6-15.7-1.6c-3.2-4.7,0-12.6-3.2-14.1c-7.9-3.2-17.3-1.6-25.1-1.6c1.6-3.1-3.1,0-3.1-3.1
	c-15.7,1.6-31.4-3.1-47.1,6.3c-7.9,4.7-7.9,22.4-14.1,27.1c-3.1,3.1-12.6-6.7-18.9-3.6c-6.3,4.8-11,9.5-20.4,6.3
	c-3.1-1.5,0-9.4-1.6-9.4c-11-4.7-14.1,7.9-15.7,17.2c-1.6,1.6-4.7,3.2-6.3,4.8c-1.6,7.8,3.1,18.8-1.6,22c-4.7,4.7-18.8,3.1-22-3.2
	c-3.1-6.3-1.6-14.1-1.6-22c-11,1.6-23.5,6.3-31.4,14.1c-1.6,3.1-11,0-11,1.6c-4.7,11,9.8,20,6.7,31c-1.6,7.8-20.8,11.4-27.1,14.5
	c-12.6,9.4-25.1,17.2-39.2,26.7c-6.3,4.7,1.6,15.7,0,23.5c-1.6,3.2-4.7,0-6.3,1.6c-1.6,4.7,4.7,14.9,3.1,19.6
	c-7.8,12.6-26.7,11.8-36.1,5.5c-6.3-3.2-12.6-7.9-20.4-6.3v4.7c-9.4,3.1-11-4.7-17.3-9.5c-4.7-4.7-14.1-3.1-20.4,3.2
	c-3.2,4.7-6.3,4.7-12.6,4.7c-1.6,0-1.6,3.2-1.6,4.7c-6.3,1.6-11,4.7-14.1,7.8c-1.6,3.2,0,7.8,0,12.6c11-1.6,23.5,0,29.8,4.7
	c7.9,4.7-4.7,14.1-14.1,15.7c-6.2,0-3.1,7.9-4.7,14.1h-4.7c-1.6,3.1,0,7.8,0,7.8c-12.5,3.2-23.5,0-36.1,3.2c-4.7,0-11,4.7-11,9.4
	c-4.7,14.1-20.4,15.7-31.4,14.1c0,6.2-3.1,15.7,1.6,17.2c6.3,3.1,15.7,0,23.6,3.1v7.9c14.1,0,28.3-1.6,42.4,4.7v3.2
	c6.3,0,20.4,3.1,20.4-7.9h18.9c0-6.2-1.6-15.7,4.7-17.3c11-3.1,18.8-7.8,28.2-6.3c-3.1,6.3-3.1,14.1,1.6,17.3
	c4.7,3.1,12.5,3.1,18.8,1.6c4.7-3.2,9.4-3.2,14.1-3.2c-1.6-4.7,6.3-4.7,4.7-9.4c7.8,0,15.7-1.6,23.5,0v4.7
	c-7.9,6.3-4.7,15.7-3.1,23.6h4.7c3.1,4.7,0,12.6,6.3,12.6c9.4,1.6,23.5,4.7,31.4-4.7c3.1-3.2,18.8-4.7,20.4,3.1
	c0,3.1-7.8,11-4.7,12.6c11,4.7,23.5,1.6,34.5-3.1c7.8-3.1,14.1-6.3,20.4-11c7.8-6.3,15.7,4.7,23.5,1.6c3.1,0,6.3,1.6,9.4,0
	c6.2-4.7,14.1-4.7,17.3-9.4c9.4-7.8,20.4-6.3,29.8-12.6c7.9-4.7,17.3-3.1,25.1,1.6c4.7,4.7,7.9,9.4,12.5,12.6
	c11,3.1,18.9,9.4,25.1,17.2c4.7,3.1-1.6,11-4.7,17.3c-7.9,12.6,12.5,20.4,17.2,29.8c4.7,9.4,3.1,23.6-7.8,25.1
	c-20.4,4.7-23.5,9.4-43.9,14.1c-11,1.6-36.1-6.2-47.1-3.1c-9.4,3.1-29.8,4.7-59.6,4.7c-2.2,0-40-0.8-76.9,0
	c-36.1,1.6-77.7,10.2-86.3,9.4c-37.8-3.5-84-5.5-122.4-4.7c-36.1,0.8-160.1,0-196.2,6.3c0,0,144.4-2.3,157-3.2
	c12.6-0.7,171.1,9.4,227.6,4.7c56.5-4.7,252.7-6.3,287.2-6.3c34.5,0,240.2-11,265.3-3.1c25.1,7.8,48.6,3.1,59.7,1.5
	c11-1.5,227.6-1.5,269.9-3.1C1434.9,422.2,1535.3,426.9,1557.3,419.1"/>
<path class="st0" d="M1009.8,440.3h108.8v51.1h-4.7c-4.3-36.1-17.7-42.4-43.2-42.4c-10.3,0-13.8,1-13.8,11.9v59
	c18.1,0.3,27.7-6.3,32.3-33.3h4.9l-4.4,78.7h-4.9c0.3-29.2-9.3-36.8-27.9-36.8V590c0,11.2,3.6,14.2,15.8,14.2
	c18.5,0,37.7-6.6,49.6-45h5.2l-7.5,52.9h-110.3v-6.4c10.7-1.5,16.6-2.3,16.6-18V464.7c0-16.7-8-17.2-16.6-18V440.3z"/>
<path class="st0" d="M1122.1,449.8h99.2v48.3h-4.3c-3.9-25-8.7-40.2-39.3-40.2c-9.6,0-12.8,1-12.8,11.3V525
	c22.1,0.5,24.8-16.6,31.7-29h4.4l-7.6,68.9h-4.5c1.2-14.2-1.7-31.7-24.1-31.7v55.9c0,15.9,7.1,16.4,19.6,17v6h-60.5v-6
	c6.6-1.4,12.1-2.1,12.1-17V472.9c0-15.8-7.3-16.3-13.9-17.1V449.8z"/>
<path class="st0" d="M1224.9,449.8h98v48.3h-4.3c-3.9-25-8.7-40.2-39.3-40.2c-9.6,0-12.8,1-12.8,11.3V525c22,0.5,24.7-16.6,28.9-29
	h4.4l-5.7,70.4h-4.4c2-15.7-0.9-33.3-23.3-33.3v55.9c0,15.9,7.1,16.4,19.5,17v6h-64.1v-6c10.2-1.4,15.7-2.1,15.7-17V472.9
	c0-15.8-7.3-16.3-12.7-17.1V449.8z"/>
<path class="st0" d="M1326.6,449.8h99.8v48.3h-4.5c-4.1-34.1-16.7-40.2-40.8-40.2c-9.8,0-13,1-13,11.3V525c17.1,0.2,26.2-6,35.6-29
	h4.6l-6.8,68.9h-4.6c-2.1-24.5-11.2-31.7-28.9-31.7v58.1c0,10.6,3.4,13.5,14.9,13.5c17.5,0,35.6-6.2,46.8-42.5h5l-7.1,50h-104.2v-6
	c10.2-1.4,15.7-2.1,15.7-17V472.9c0-15.8-7.5-16.3-12.7-17.1V449.8z"/>
<path class="st0" d="M1547.6,581.7c-13,19.9-26.9,35.1-49.7,35.1c-41.5,0-63.9-39.4-63.9-84.3c0-48.7,25.6-86.2,63-86.2
	c16,0,29.7,11.7,34.3,11.7c4.8,0,6.4-5,4.6-7.4h4.8L1535,496h-2.1c0.8-13.7-14.2-41.8-34.5-41.8c-26,0-32.9,36.7-32.9,77.3
	c0,14.4,1.1,37.4,7.7,52.8c7.5,17.3,21.5,20.9,27.1,20.9c13.9,0,27.2-7.2,42-29.5L1547.6,581.7z"/>
<path class="st0" d="M1616.7,612.2h-63.6v-6c13-1.4,17.3-1.9,17.3-22.1V457.5c-12.5,1-30.8,2.2-34.4,40.6h-5.1l0.5-48.3h106.8
	l0.4,48.3h-5.2c-3.5-38.4-21.9-39.7-34.2-40.6V584c0,20.4,4.3,20.9,17.4,22.1V612.2z"/>
<path class="st0" d="M1718.3,498.1c-3.2-16.8-13.9-44.4-34.9-44.4c-9.3,0-19,7.2-19,22.8c0,13,3.4,18.3,18.3,28.3l26.2,17.6
	c6,4.1,19.6,18,19.6,44.2c0,21.1-11.4,50.2-44.1,50.2c-17,0-25-8.2-30.5-8.2c-3.7,0-4.7,4.3-5.4,8.2h-5.1v-59.3h5.1
	c3.6,24.3,13.9,51.4,36.5,51.4c21.4,0,22.2-23.7,22.2-26.9c0-16.1-8.3-21.8-19.9-29.3l-11.9-7.7c-30.4-19.7-30.4-40.3-30.4-51.3
	c0-14.7,5.5-47.3,39.4-47.3c14.2,0,22.6,7.9,27.7,7.9c4.1,0,5-3.6,5.9-8.2h5.3v52.1H1718.3z"/>
<path class="st0" d="M113,612.2H4.1v-6.4c10.6-1.8,16.2-2.5,16.2-18V464.7c0-16.7-7.7-17.2-16.2-18v-6.3h65.8v6.3
	c-13.2,0.8-19,1-19,23.4v120c0,12.2,4.1,14.2,16.7,14.2c28.5,0,39-21.1,54.8-48.2h5.4L113,612.2z"/>
<path class="st0" d="M218.8,612.2h-57.7v-6c11.1-1.2,14.2-1.4,14.2-9.3c0-6.4-5.7-24.3-8.2-31.9H127c-5,17.3-7.8,27.1-7.8,31
	c0,9.1,8.5,9.9,14.6,10.3v6H97.7v-6c9.6-1.9,12.1-10,17.5-28.1l39.5-131.5h5l39.7,126.3c8,25.6,10.9,33.8,19.4,33.3V612.2z
	 M164.5,555.5l-18-58.4l-16.7,58.4H164.5z"/>
<path class="st0" d="M213.2,606.1c10.7-1.6,15.7-3.3,15.7-19.2V473.1c-10-16.6-12.8-17.3-15.2-17.3v-5.9h37.5l61.8,102.5h0.4v-72.7
	c0-14.4-2.1-22.4-16.6-23.8v-5.9h38.3v5.9c-12.8,2.2-13.9,7.7-13.9,19.2v141.5h-5l-79.2-130.2h-0.4v96c0,17.3,3.8,21.9,16.9,23.8v6
	h-40.4V606.1z"/>
<path class="st0" d="M337.9,606.1c11.2,0,14.8-6.9,14.8-15.8V471.9c0-14.7-7.8-15.2-14.8-16.2v-5.9h54.3c49.8,0,66,41.8,66,78.7
	c0,44.2-19.2,81.6-64.1,83.6h-56.3V606.1z M381.5,589.8c0,9.6,1.6,13.9,10.2,13.9c19.9,0,35.6-15.4,35.6-72.8c0-21.9-4.1-73-34.7-73
	c-11.4,0-11.2,6-11.1,11.3V589.8z"/>
<path class="st0" d="M545.1,498.1c-3.2-16.8-13.9-44.4-34.9-44.4c-9.2,0-19,7.2-19,22.8c0,13,3.4,18.3,18.3,28.3l26.2,17.6
	c6,4.1,19.6,18,19.6,44.2c0,21.1-11.4,50.2-44.2,50.2c-16.9,0-24.9-8.2-30.4-8.2c-3.7,0-4.6,4.3-5.3,8.2h-5.1v-59.3h5.1
	c3.6,24.3,13.9,51.4,36.5,51.4c21.4,0,22.3-23.7,22.3-26.9c0-16.1-8.4-21.8-20-29.3l-11.9-7.7c-30.4-19.7-30.4-40.3-30.4-51.3
	c0-14.7,5.5-47.3,39.3-47.3c14.2,0,22.6,7.9,27.8,7.9c4.1,0,5-3.6,5.9-8.2h5.3v52.1H545.1z"/>
<path class="st0" d="M671.1,581.7c-13,19.9-26.9,35.1-49.7,35.1c-41.4,0-63.9-39.4-63.9-84.3c0-48.7,25.7-86.2,63-86.2
	c16,0,29.7,11.7,34.4,11.7c4.8,0,6.4-5,8.2-11h4.8v56.2h-4.5c-6.2-20.9-21.2-49-41.5-49c-26,0-32.9,36.7-32.9,77.3
	c0,14.4,1,37.4,7.6,52.8c7.5,17.3,21.5,20.9,27.1,20.9c13.9,0,27.2-7.2,42-29.5L671.1,581.7z"/>
<path class="st0" d="M767.9,612.2h-31.6v-6c-3.5,1.7-10-3.6-11.8-9.3c-1.9-6.2-5.7-24.3-8.2-31.9h-40.1c-5,17.3-7.8,27.1-7.8,31
	c0,9.1,8.5,9.9,14.6,10.3v6h-36.1v-6c9.6-1.9,12.1-10,17.4-28.1l39.5-131.5h5l39.7,126.3c8,25.6,10.9,33.8,19.4,33.3V612.2z
	 M713.6,555.5l-18-58.4l-16.8,58.4H713.6z"/>
<path class="st0" d="M755.3,606.1c8.7-1.9,9.1-2.1,10.3-3.3c2.1-2.1,4.6-5.3,4.6-18.7V477.9c0-20.2-5.5-20.9-15-22.1v-5.9h57.3
	c14.3,0,46.6,3.6,46.6,44.2c0,8.4-2,25.4-16.2,36.3c-11.4,8.6-20.5,8.9-44,9.1V584c0,19.4,3.4,20,15.7,22.1v6h-59.5V606.1z
	 M799.1,531c21.5,0.5,29.6-6.5,29.6-36.2c0-27.4-6.4-36.5-21-36.5c-6,0-8.3,3.1-8.5,8.4V531z"/>
<path class="st0" d="M857,449.8h102.7v48.3h-4.4c-4.1-34.1-16.8-40.2-40.8-40.2c-9.8,0-13,1-13,11.3V525c17.1,0.2,26.2-6,31.5-29
	h4.6l-7.3,68.9h-4.6c2.5-24.5-6.6-31.7-24.2-31.7v58.1c0,10.6,3.4,13.5,14.9,13.5c17.5,0,35.6-6.2,46.9-42.5h5l-7.1,50H857v-6
	c10.2-1.4,15.7-2.1,15.7-17V472.9c0-15.8-7.5-16.3-15.7-17.1V449.8z"/>
<path class="st0" d="M772.3,672.9c-0.1,7.3-0.7,13.5-5.1,19.8c-4.9,6.8-12.3,9.8-20.7,9.8c-15.8,0-26.7-10.7-26.7-26.5
	c0-16.3,11-27,27.2-27c10.3,0,18.3,4.6,22.6,14l-12.4,5.2c-1.8-4.8-5.6-8-10.8-8c-8.6,0-13,8.2-13,15.8c0,7.8,4.6,15.7,13.2,15.7
	c5.7,0,10-3,10.5-8.7h-10.7v-10.2H772.3z"/>
<path class="st0" d="M829.9,701h-16.2l-12.3-19.3h-0.1V701h-13v-50.2h19.5c9.9,0,17.4,4.7,17.4,15.4c0,6.9-3.9,12.9-11,14.2
	L829.9,701z M801.3,673.3h1.2c4.3,0,9-0.8,9-6.3c0-5.4-4.8-6.2-9-6.2h-1.2V673.3z"/>
<path class="st0" d="M896.4,674.9c0,16.3-11.6,27.7-27.7,27.7c-16.1,0-27.7-11.4-27.7-27.7c0-15.2,13.3-25.8,27.7-25.8
	C883.1,649.1,896.4,659.8,896.4,674.9 M854.5,675c0,8.7,6.4,15,14.2,15c7.8,0,14.2-6.3,14.2-15c0-6.9-6.4-13.2-14.2-13.2
	C860.9,661.8,854.5,668.1,854.5,675"/>
<path class="st0" d="M955.9,650.8V679c0,6.5-0.3,12.8-5.2,17.7c-4.2,4.1-10.7,5.6-16.6,5.6c-5.9,0-12.4-1.4-16.6-5.6
	c-5-4.9-5.3-11.2-5.3-17.7v-28.2h13v26.4c0,6.5,0.5,13.7,8.9,13.7c8.4,0,8.9-7.2,8.9-13.7v-26.4H955.9z"/>
<path class="st0" d="M974.2,650.8h20c10.8,0,18.2,5,18.2,16.5c0,11.8-6.4,17-17.8,17h-7.4V701h-13.1V650.8z M987.2,673.8h2.1
	c4.8,0,9.4,0,9.4-6.1c0-6.3-4.3-6.4-9.4-6.4h-2.1V673.8z"/>
<g>
	<rect y="678.5" class="st0" width="695.8" height="3"/>
</g>
<g>
	<rect x="1030.7" y="678.5" class="st0" width="695.8" height="3"/>
</g>
</svg>
