<?xml version="1.0" encoding="UTF-8"?>
<svg width="109px" height="51px" viewBox="0 0 109 51" version="1.1" xmlns="http://www.w3.org/2000/svg" xmlns:xlink="http://www.w3.org/1999/xlink">
    <!-- Generator: Sketch 42 (36781) - http://www.bohemiancoding.com/sketch -->
    <title>Shiva - Logo</title>
    <desc>Created with Sketch.</desc>
    <defs></defs>
    <g id="Page-1" stroke="none" stroke-width="1" fill="none" fill-rule="evenodd">
        <g id="Desktop-HD" transform="translate(-75.000000, -75.000000)" fill="#4A83FA">
            <path d="M141.231635,108.535879 C138.313337,112.850121 133.914822,118.986609 131.509714,120.838868 C127.96359,123.57673 127.078084,117.11947 128.268203,109.618362 C126.402032,112.407952 124.071578,115.877064 122.552807,118.086105 C121.460427,119.702827 118.707631,122.106062 118.008508,120.139778 C117.702642,119.30957 118.270679,112.143224 119.363059,106.419155 C117.440471,108.691305 112.502579,114.677545 112.109658,119.615436 C105.860911,124.465602 105.555045,114.852661 118.663936,85.6629351 C118.926107,84.8327266 127.053747,84.0899085 125.961367,86.3183628 C125.568111,87.0611809 124.082474,89.202581 124.082474,89.202581 C119.62523,96.4996764 116.042225,104.365482 113.988215,110.395417 C115.823749,107.423808 118.401765,103.534937 120.761304,101.131366 C121.241951,97.9419536 125.873977,98.3352102 127.709175,98.9466067 C128.583078,99.1217235 129.544372,99.9956271 125.742891,104.059279 C124.388341,106.986856 122.9464,110.657588 122.465753,113.672555 C124.725862,111.248669 127.575275,107.547772 129.062888,105.699272 C130.013612,101.859259 131.466029,98.1099858 133.345248,95.4949897 C134.00034,95.3198729 135.093055,95.1887874 136.14174,95.1887874 C137.845852,95.1887874 139.549964,95.5383488 139.549964,96.6307284 C139.549964,97.242797 139.025622,98.2914814 137.32151,100.126679 C135.311531,104.102941 132.514703,110.002126 132.383618,114.066115 L132.383618,114.240559 C132.383618,114.765237 132.602094,115.027072 132.864265,115.027072 C134.683721,115.027072 141.367174,105.561544 142.666746,103.836337 C143.483834,101.605647 144.390689,99.6537134 145.142611,98.3350422 C145.448477,97.330053 148.900733,96.63093 151.216578,98.2039566 L151.216578,98.2476518 C151.915701,98.6409084 151.915701,100.039154 148.551172,104.321618 C145.492173,110.570365 144.399793,117.998883 145.536204,118.261054 C148.769647,119.003872 155.935993,97.4611385 155.673822,93.4845408 C155.586096,92.1303263 159.95595,92.3921612 160.392902,93.4845408 C164.500249,97.9417855 149.337685,123.854037 144.399793,121.887754 C139.847223,120.250946 139.845558,114.272804 141.231635,108.535879 Z M102.628308,78.3218755 C92.6654702,83.6967191 84.8000012,99.0777594 94.2821919,98.9029787 C116.174487,98.3786365 104.550896,125.470658 82.6152421,125.995336 C75.8858479,126.213476 68.1077693,118.7416 85.9797711,111.487863 C86.5915037,111.706339 86.5478085,112.318072 86.198247,112.536548 C79.5562432,116.163584 75.7984575,125.208487 83.0958891,123.329594 C96.5546775,119.877675 107.041857,101.612416 88.819958,101.961978 C81.0859107,102.093063 81.0859107,79.4142551 99.1326933,75.088432 C100.880501,74.6951754 101.667014,75.7001646 103.545907,76.3992875 C106.123922,75.088432 111.673547,74.607785 110.843338,79.152084 C109.663568,85.4445264 100.836805,91.9117495 96.7291221,93.3973857 C96.7291221,93.3973857 95.8989137,92.3923965 97.1664101,90.6445892 C100.967891,88.3721036 107.565863,80.3755491 102.628308,78.3218755 Z M139.724745,85.31334 C140.817124,85.31334 142.434182,86.5371412 142.434182,88.0661365 C142.434182,91.2562209 138.239108,95.6260753 135.835873,91.6931728 C134.306206,89.3773281 137.4089,85.31334 139.724745,85.31334 Z M173.151122,119.09096 C172.583085,119.921168 169.611813,121.23236 168.824963,119.921168 C168.519097,119.397162 168.562792,116.294468 168.91269,112.798853 C167.120851,115.595345 165.416739,118.217056 164.629889,119.26574 C162.707638,121.800397 159.124297,121.538226 158.599954,118.08597 C157.944527,113.235805 159.954505,105.15186 161.221665,102.661235 C162.926113,99.340065 164.761311,96.6746588 167.295632,96.8057444 C173.282208,97.0679155 173.762519,99.1215891 173.019701,100.869732 C174.89893,100.213969 177.214774,100.782342 178.045319,101.350043 C178.656715,101.699605 178.831496,102.748289 175.947614,105.807288 C174.89893,108.166828 173.80655,111.051046 173.282208,113.628726 C176.340871,110.919624 181.802768,103.360358 182.283752,102.923406 C182.939179,102.267978 183.550576,103.404053 183.550576,103.404053 C180.142688,108.647475 177.214774,113.10472 173.151122,119.09096 Z M169.524086,108.341609 C169.873647,106.375325 170.310935,104.583487 170.834942,103.228936 C172.53939,92.6106708 161.483836,110.526368 163.31937,115.813485 C163.887071,117.430543 167.295632,111.400608 169.524086,108.341609 Z" id="Shiva---Logo"></path>
        </g>
    </g>
</svg>