<?xml version="1.0" encoding="utf-8"?>
<!-- Generator: Adobe Illustrator 19.0.0, SVG Export Plug-In . SVG Version: 6.00 Build 0)  -->
<svg version="1.1" id="Layer_1" xmlns="http://www.w3.org/2000/svg" xmlns:xlink="http://www.w3.org/1999/xlink" x="0px" y="0px"
	 width="879.6px" height="479.2px" viewBox="0 0 879.6 479.2" style="enable-background:new 0 0 879.6 479.2;" xml:space="preserve"
	>
<style type="text/css">
	.st0{fill:#FFFFFF;}
</style>
<g>
	<path id="XMLID_47_" class="st0" d="M183.5,437.9v19.6c-3.9,2.4-10.2,3.7-15.1,3.7c-13.5,0-21.4-9.6-21.4-21c0-11.8,8.6-21,20.8-21
		c7.3,0,11.8,2,14.9,5.2l-3.8,4.1c-3.3-3.2-7-4.2-11-4.2c-9.1,0-15,7.2-15,15.9c0,9,6.7,15.9,15.5,15.9c3.8,0,7.4-0.7,9.8-2.1V443
		h-8.8v-5.1H183.5z"/>
	<path class="st0" d="M189.8,440.3c0-11.8,8.6-21,20.8-21s20.8,9.1,20.8,21c0,11.8-8.6,21-20.8,21S189.8,452.1,189.8,440.3
		 M225.6,440.3c0-8.7-5.9-15.9-15-15.9s-15,7.2-15,15.9c0,8.7,5.9,15.9,15,15.9S225.6,449,225.6,440.3"/>
	<polygon id="XMLID_44_" class="st0" points="238.1,420.4 243.5,420.4 243.5,455.2 261.8,455.2 261.8,460.2 238.1,460.2 	"/>
	<polygon id="XMLID_43_" class="st0" points="266.2,420.4 291.3,420.4 291.3,425.4 271.6,425.4 271.6,437.9 289.9,437.9 289.9,443 
		271.6,443 271.6,460.2 266.2,460.2 	"/>
	<path id="XMLID_42_" class="st0" d="M339.8,429c-2.2-2.9-6-4.6-9.6-4.6c-9,0-14.9,7.2-14.9,16.2c0,8.4,5.6,15.5,14.9,15.5
		c4.6,0,8.1-2,10.4-5.4l4.6,3.4c-1.2,1.6-6,7-15.1,7c-12.7,0-20.5-10.6-20.5-20.6c0-12.4,8.5-21.3,20.8-21.3c5.2,0,10.8,2,14,6.2
		L339.8,429z"/>
	<polygon id="XMLID_41_" class="st0" points="350.6,420.4 356,420.4 356,455.2 374.3,455.2 374.3,460.2 350.6,460.2 	"/>
	<path id="XMLID_40_" class="st0" d="M383.5,420.4v24.4c0,5,2.5,11.4,10,11.4c7.5,0,10-6.4,10-11.4v-24.4h5.4v25.3
		c0,9.2-6.7,15.6-15.4,15.6c-8.7,0-15.4-6.4-15.4-15.6v-25.3H383.5z"/>
	<path class="st0" d="M417.4,420.4h13.9c6.9,0,12.1,3.2,12.1,10c0,4.6-2.8,7.4-6.9,8.8v0.1c4.8,0.3,8.6,4.6,8.6,9.9
		c0,7.1-6.3,11.1-14,11.1h-13.7V420.4z M422.8,436.9h7.4c4.1,0,7.4-1.6,7.4-6c0-3.2-2-5.9-6.3-5.9h-8.5V436.9z M422.8,455.5h7.9
		c3.3,0,8.6-1.1,8.6-6.8c0-4.7-3.3-7.1-8.6-7.1h-8V455.5z"/>
	<path class="st0" d="M530.9,420.4h14c10.2,0,12.8,6.1,12.8,11.1c0,5.1-3.8,9.9-9.8,10.5l11.3,18.2h-6.8l-10.1-17.6h-6v17.6h-5.4
		V420.4z M536.3,437.9h7.1c4.3,0,8.6-1,8.6-6.4c0-5.4-4.3-6.4-8.6-6.4h-7.1V437.9z"/>
	<polygon id="XMLID_34_" class="st0" points="564.2,420.4 590,420.4 590,425.4 569.6,425.4 569.6,437.3 588.6,437.3 588.6,442.4 
		569.6,442.4 569.6,455.2 591,455.2 591,460.2 564.2,460.2 	"/>
	<path id="XMLID_33_" class="st0" d="M598.8,451.9c1.9,2.9,5.2,4.3,8.4,4.3c3.6,0,7.9-2.3,7.9-6.7c0-9.2-19.6-3.5-19.6-19
		c0-4.7,3.9-11.2,13.5-11.2c4.3,0,8.5,0.9,11.5,4.6l-4.4,4c-1.3-2.1-4-3.5-7.1-3.5c-6,0-7.8,3.6-7.8,6.1c0,10.1,19.7,4,19.7,18.4
		c0,7.7-6.2,12.3-13.9,12.3c-5.1,0-10-1.8-12.7-5.5L598.8,451.9z"/>
	<path class="st0" d="M625.3,440.3c0-11.8,8.6-21,20.8-21c12.2,0,20.8,9.1,20.8,21c0,11.8-8.6,21-20.8,21
		C633.9,461.2,625.3,452.1,625.3,440.3 M661.1,440.3c0-8.7-5.9-15.9-15-15.9c-9.1,0-15,7.2-15,15.9c0,8.7,5.9,15.9,15,15.9
		C655.2,456.2,661.1,449,661.1,440.3"/>
	<path class="st0" d="M673.6,420.4h14c10.2,0,12.8,6.1,12.8,11.1c0,5.1-3.8,9.9-9.8,10.5l11.3,18.2h-6.8L685,442.6h-6v17.6h-5.4
		V420.4z M679,437.9h7.1c4.3,0,8.6-1,8.6-6.4c0-5.4-4.3-6.4-8.6-6.4H679V437.9z"/>
	<polygon id="XMLID_28_" class="st0" points="714.2,425.4 701.4,425.4 701.4,420.4 732.5,420.4 732.5,425.4 719.7,425.4 
		719.7,460.2 714.2,460.2 	"/>
	<path class="st0" d="M499.7,431.8c2,0.1,4,0.1,5.9,0.2c2,0,4,0.1,6.1,0.1c1.8,0,3.4,0,5-0.1c1.5,0,3-0.1,4.4-0.2l0.2,2.6l-6.5,1.8
		c-0.7,0.2-1,0.7-0.9,1.3c0.2,2,0.3,3.8,0.3,5.5c0,8.1-1.8,15.1-5.4,20.9c2.3,3.6,4.4,6.2,6.3,7.9c1.9,1.7,4.1,2.5,6.6,2.5
		c1,0,2-0.1,3.2-0.4l0.4,2.6c-3.1,1.8-6.3,2.6-9.6,2.6c-5.5,0-10.2-2.6-14.1-7.8c-6.3,5-13.2,7.6-20.9,7.6c-7.2,0-13.3-2-18.2-5.8
		c-4.9-3.9-7.4-9.2-7.4-15.9c0-9,5.1-16.5,15.2-22.4c-3.8-5-6.2-8.9-7.3-11.8c-1.1-2.9-1.6-5.8-1.6-8.9c0-5.6,1.9-10,5.7-13.4
		c3.8-3.4,8.5-5,14.2-5c5,0,9.2,1.4,12.6,4.3c3.4,2.8,5.1,6.7,5.1,11.7c0,8.1-5.3,14.9-16.1,20.5l22.4,27.3
		c2.3-4.5,3.5-9.7,3.5-15.5c0-2.4-0.1-4.3-0.3-5.8c-0.1-0.7-0.3-1.3-0.7-1.6c-0.3-0.3-0.8-0.5-1.5-0.7l-6.5-1.5L499.7,431.8z
		 M474,438.2c-5,4.6-7.4,10.3-7.4,17.1c0,5.4,1.5,9.6,4.4,12.8c2.9,3.2,7,4.7,12.2,4.7c5,0,9.6-1.8,13.8-5.5L474,438.2z
		 M480.1,429.2c4.9-4.9,7.4-10.6,7.4-17.1c0-3.5-0.7-6.3-2.1-8.4c-1.4-2.1-3.1-3.2-5.2-3.2c-2.2,0-4,0.9-5.3,2.8
		c-1.3,1.9-2,4.3-2,7.4c0,5.1,1.7,10.2,5.2,15.4L480.1,429.2z"/>
	<rect id="XMLID_24_" x="148.9" y="407.1" class="st0" width="297.8" height="1.3"/>
	<rect id="XMLID_23_" x="530.3" y="407.1" class="st0" width="199.4" height="1.3"/>
	<path id="XMLID_22_" class="st0" d="M719.5,159.5c-7.8-0.6-77.5-4.9-61.6-3.6c8.4,1.2-27.5,3.2-28.1,3c-9.6-4.2-21.5,0.6-30.5-1.2
		c-17.9-3.6-34.7,0.6-52-0.6c-7.2-0.6-13.7-3-20.9-4.2c-0.6-0.6-1.8-1.8-2.4-2.4c-4.8-3-10.8,0-15.5-3c-6-3-13.2,1.2-17.9-3.6
		c-1.8-1.2-2.4-4.2-4.2-4.2c-7.2-1.2-15.5,0.6-20.3-6c-3.6-4.2-2.4-10.2-0.6-15.5c0.6-2.4,1.2-4.8,2.4-7.8c0-1.2,3-0.6,4.8-0.6
		c-1.2,0.6-0.6,1.8-0.6,2.4c3.6,0,7.8-1.2,10.2,0.6c3,1.8-0.6,7.8,3,8.4c7.2,1.8,15-3.6,20.9-0.6c4.2,1.8,7.8,9,11.4,6
		c1.8-1.2,4.8,0,5.4-3c14.3,0.6,28.1-3.6,42.4-2.4c-0.6,0.6,1.2,1.2,0.6,1.8c3.6,0,6.6,0.6,9.6-1.8c2.4-1.8,6-1.2,7.2,0.6
		c1.8,1.2,3.6,1.8,5.4,1.2c1.2-0.6,1.2-1.8,1.2-3c0.6-1.8,2.4-1.8,4.2-2.4c0.6-0.6,1.2-1.8,1.8-2.4c2.4-1.8,5.4,0,8.4-1.2
		c3-1.2,6-1.8,9-3.6c0.6,0,0.6-3.6,0-3.6c-2.4-1.2-6.6,0.6-7.8-1.2c-1.2-1.2-0.6-4.2-0.6-6.6c-5.4,0.6-10.8,0-13.7-3.6
		c-2.4-2.4,1.2-6.6,3-10.2h1.8c1.2-1.8,0.6-4.2-0.6-4.2c-4.2-0.6-10.1-1.8-8.3-7.2c-3.6,0.6-10.2-1.8-10.8,3.6
		c-4.8,0-10.7,1.8-13.1-1.2c-3-3.6,1.2-8.4,5.4-11.9c1.2-0.6,0.6-4.2-0.6-6.6c-1.8-2.4,0.6-7.2-1.8-10.2c-1.8-1.2-4.8,0-6.6-1.2
		c-3-3-4.8-7.2-7.2-10.2c-2.4-2.4-7.8,1.2-11.4-0.6c-0.6,0,0.6-2.4,0-3.6c-1.8-1.8-4.8,0-7.2-0.6c-1.2-1.2-2.4-3-2.4-4.8
		c-1.2,0-1.8-0.6-3,0.6c-3.6,3-8.4,1.2-11.9,4.2c-3,1.8-4.8,3.6-8.4,3c0,1.8,0.6,4.2,0,4.8c-2.4,1.8-6,1.2-7.8-1.2
		c-2.4-2.4,0-6-0.6-9.5c0-0.6,1.8-1.2,1.8-1.2c2.4-4.8-1.8-6-5.4-9c-0.6,0,0.6-2.4,0-3.6c-1.8-2.4-5.4-3-8.4-2.4v-2.4
		c-3.6-1.2-6,1.8-9.6,2.4c-9,1.8-17.9-0.6-26.9,1.2c-0.6,0.6-1.2,1.8-1.8,1.8c-1.8,1.8-4.8,0.6-6.6-0.6c-1.2-1.2-0.6-3.6-1.8-4.2
		c-2.4-2.4-6,3.6-9.6,0.6c-0.6-1.2-0.6-3-1.8-3.6c-1.8-0.6-4.8,0.6-6-0.6c-1.2-1.8,0-4.8-1.2-5.4c-3-1.2-6.6-0.6-9.6-0.6
		c0.6-1.2-1.2,0-1.2-1.2c-6,0.6-11.9-1.2-17.9,2.4c-3,1.8-3,8.5-5.4,10.3c-1.2,1.2-4.8-2.5-7.2-1.3c-2.4,1.8-4.2,3.6-7.8,2.4
		c-1.2-0.6,0-3.6-0.6-3.6c-4.2-1.8-5.4,3-6,6.6c-0.6,0.6-1.8,1.2-2.4,1.8c-0.6,3,1.2,7.2-0.6,8.4c-1.8,1.8-7.2,1.2-8.4-1.2
		c-1.2-2.4-0.6-5.4-0.6-8.4c-4.2,0.6-9,2.4-11.9,5.4c-0.6,1.2-4.2,0-4.2,0.6c-1.8,4.2,3.7,7.6,2.5,11.8c-0.6,3-7.9,4.3-10.3,5.5
		c-4.8,3.6-9.6,6.6-14.9,10.2c-2.4,1.8,0.6,6,0,9c-0.6,1.2-1.8,0-2.4,0.6c-0.6,1.8,1.8,5.7,1.2,7.5c-3,4.8-10.2,4.5-13.8,2.1
		c-2.4-1.2-4.8-3-7.8-2.4v1.8c-3.6,1.2-4.2-1.8-6.6-3.6c-1.8-1.8-5.4-1.2-7.8,1.2c-1.2,1.8-2.4,1.8-4.8,1.8c-0.6,0-0.6,1.2-0.6,1.8
		c-2.4,0.6-4.2,1.8-5.4,3c-0.6,1.2,0,3,0,4.8c4.2-0.6,9,0,11.4,1.8c3,1.8-1.8,5.4-5.4,6c-2.4,0-1.2,3-1.8,5.4h-1.8c-0.6,1.2,0,3,0,3
		c-4.8,1.2-9,0-13.7,1.2c-1.8,0-4.2,1.8-4.2,3.6c-1.8,5.4-7.8,6-12,5.4c0,2.4-1.2,6,0.6,6.6c2.4,1.2,6,0,9,1.2v3
		c5.4,0,10.8-0.6,16.1,1.8v1.2c2.4,0,7.8,1.2,7.8-3h7.2c0-2.4-0.6-6,1.8-6.6c4.2-1.2,7.2-3,10.7-2.4c-1.2,2.4-1.2,5.4,0.6,6.6
		c1.8,1.2,4.8,1.2,7.2,0.6c1.8-1.2,3.6-1.2,5.4-1.2c-0.6-1.8,2.4-1.8,1.8-3.6c3,0,6-0.6,9,0v1.8c-3,2.4-1.8,6-1.2,9h1.8
		c1.2,1.8,0,4.8,2.4,4.8c3.6,0.6,8.9,1.8,11.9-1.8c1.2-1.2,7.2-1.8,7.8,1.2c0,1.2-3,4.2-1.8,4.8c4.2,1.8,9,0.6,13.1-1.2
		c3-1.2,5.4-2.4,7.8-4.2c3-2.4,6,1.8,9,0.6c1.2,0,2.4,0.6,3.6,0c2.4-1.8,5.4-1.8,6.6-3.6c3.6-3,7.8-2.4,11.4-4.8
		c3-1.8,6.6-1.2,9.6,0.6c1.8,1.8,3,3.6,4.8,4.8c4.2,1.2,7.1,3.6,9.5,6.6c1.8,1.2-0.6,4.2-1.8,6.6c-3,4.8,4.8,7.8,6.6,11.4
		c1.8,3.6,1.2,9-3,9.6c-7.8,1.8-9,3.6-16.7,5.4c-4.2,0.6-13.7-2.4-17.9-1.2c-3.6,1.2-11.4,1.8-22.7,1.8c-0.8,0-15.2-0.3-29.3,0
		c-13.7,0.6-29.6,3.9-32.9,3.6c-14.4-1.3-32-2.1-46.6-1.8c-13.7,0.3-60.9,0-74.7,2.4c0,0,55-0.9,59.8-1.2c4.8-0.3,65.1,3.6,86.6,1.8
		c21.5-1.8,96.2-2.4,109.3-2.4c13.2,0,91.5-4.2,101-1.2c9.6,3,18.5,1.2,22.7,0.6c4.2-0.6,86.6-0.6,102.8-1.2
		C672.9,160.7,711.1,162.5,719.5,159.5"/>
	<path class="st0" d="M48.8,263.8c0,5.6,0,10.7,0.1,15.2c0.1,4.5,0.1,8.5,0.2,12.2c0.1,2.9,1.3,4.7,3.6,5.5l15.6,4.6l0.4,6
		c-11.1-0.3-22.3-0.4-33.4-0.4c-11.3,0-22.9,0.1-34.8,0.4l-0.6-6l17.3-5.2c2.3-0.7,3.6-2.1,3.8-4.4c0.1-3.7,0.2-7.9,0.2-12.6
		c0-4.6,0.1-9.8,0.1-15.4V150c0-4.8,0-9.1-0.1-12.9c0-3.8-0.1-7.3-0.2-10.4c-0.1-2.4-1.2-4-3.4-4.8l-17.4-5.5l-0.3-6
		c12.1,0.4,23.9,0.6,35.4,0.6c2.3,0,5.1-0.1,8.6-0.2c3.5-0.1,7.8-0.3,12.8-0.5c5.1-0.2,9.3-0.3,12.8-0.4c3.4-0.1,6.1-0.1,8.1-0.1
		c21.6,0,37.7,4,48.5,12.1c10.8,8.1,16.2,19.8,16.2,35.2c0,13.9-3.7,25.2-11.1,33.9c-7.4,8.7-18.7,15.3-33.9,20
		c6,9,11.5,17.7,16.5,26c5,8.4,9.7,16,14,23c4.3,7,8.3,13.1,11.8,18.5c3.6,5.3,6.9,9.6,10,12.6c1.6,1.6,3.2,3,4.8,4.2
		c1.6,1.2,3.3,2.1,5,2.9c1.7,0.8,3.5,1.4,5.5,2c1.9,0.6,4.1,1.1,6.4,1.7l0.4,6.2c-6.7,0.8-12.4,1.3-17,1.3c-3.9,0-7.2-0.1-10.1-0.3
		c-2.9-0.2-5.5-0.5-7.8-1.1c-2.3-0.6-4.3-1.3-6.2-2.2c-1.9-0.9-3.7-2.1-5.5-3.5c-3.9-2.9-7.7-7.1-11.5-12.5
		c-3.7-5.5-7.6-11.7-11.7-18.6c-4-6.9-8.2-14.3-12.6-22.1c-4.4-7.8-9-15.4-13.8-23c-1.4-2.2-2.6-4-3.6-5.3c-1-1.3-2.1-2.4-3.3-3.1
		c-1.2-0.8-2.6-1.3-4.1-1.5c-1.6-0.3-3.6-0.5-6-0.6l-9.8-0.3V263.8z M48.8,204.6c5.7,0.3,11,0.4,15.9,0.4c16.2,0,28-3.5,35.6-10.3
		c7.5-6.9,11.3-17.7,11.3-32.4c0-14.2-3.6-24.6-10.8-31.2c-7.2-6.5-18.5-9.8-33.8-9.8c-2.6,0-5.4,0.1-8.4,0.3
		c-3,0.2-6.2,0.5-9.7,0.8V204.6z"/>
	<path class="st0" d="M236.1,224.8c0,15.8-4.7,28.5-14.2,38c-9.5,9.5-22.7,14.3-39.6,14.3c-16.1,0-28.6-4.4-37.4-13.2
		c-8.8-8.8-13.3-20.8-13.3-35.8c0-15.7,4.8-28.2,14.3-37.4c9.5-9.2,22.7-13.8,39.5-13.8c16.2,0,28.7,4.3,37.5,12.9
		C231.7,198.3,236.1,210,236.1,224.8 M150.7,225.7c0,14.3,2.9,25.3,8.6,32.9c5.8,7.6,14.2,11.4,25.4,11.4c11,0,19.1-3.5,24.4-10.4
		c5.2-6.9,7.9-17.8,7.9-32.6c0-13.8-2.8-24.5-8.3-32c-5.5-7.5-14.1-11.2-25.7-11.2c-11.3,0-19.5,3.5-24.7,10.4
		C153.3,201.2,150.7,211.6,150.7,225.7"/>
	<path id="XMLID_17_" class="st0" d="M323.6,209.1l-3.5,0.5l-6.3-22.9c-5.7-1.8-10.9-2.7-15.6-2.7c-11.2,0-19.9,3.8-26.4,11.2
		c-6.4,7.5-9.6,17.2-9.6,29.2c0,12.9,3.9,23.1,11.6,30.7c7.8,7.6,18.4,11.4,32,11.4c7.6,0,15.8-1.8,24.3-5.3l0.8,4
		c-9.8,7.8-21,11.7-33.5,11.7c-16.2,0-29.3-4.5-39.3-13.5c-10-9-15.1-20.9-15.1-35.7c0-15.7,5.5-28.1,16.5-37.3
		c11-9.2,25.3-13.8,42.9-13.8c8.4,0,17,1.2,25.9,3.6l0.6,0.6L323.6,209.1z"/>
	<path id="XMLID_16_" class="st0" d="M431.7,264.7c0.1,1.6,0.9,2.7,2.3,3.2l10.7,3.1l0.2,3.8c-8.5-0.2-15.6-0.3-21.5-0.3
		c-6,0-12.6,0.1-19.9,0.3l-0.4-3.8l9.2-2.7c1.4-0.5,2.2-1.4,2.3-2.9c0.1-2.3,0.2-6.3,0.2-12v-25.6h-50.1v22c0,7.4,0.1,12.4,0.2,15.3
		c0.1,1.7,0.9,2.7,2.4,3.2l9.1,2.7l0.2,3.8c-7.4-0.2-14.1-0.3-20-0.3c-6,0-13,0.1-21.2,0.3L335,271l10.6-3.1
		c1.4-0.5,2.2-1.4,2.3-2.8c0.1-2.4,0.2-6.4,0.2-12v-49c0-7.2-0.1-12.2-0.2-15.1c-0.1-1.7-0.9-2.8-2.3-3.2l-10.6-3.2l-0.2-3.8
		c8.4,0.2,15.6,0.4,21.5,0.4c5.9,0,12.5-0.1,19.8-0.4l0.4,3.8l-9.1,2.8c-1.5,0.4-2.3,1.3-2.4,2.8c-0.1,2.4-0.2,6.4-0.2,12v19.7h50.1
		v-16.2c0-7.3-0.1-12.4-0.2-15.3c-0.1-1.6-0.9-2.7-2.3-3.1l-9.2-2.8l-0.2-3.8c7.5,0.2,14.1,0.4,20,0.4c5.9,0,13-0.1,21.2-0.4
		l0.5,3.8l-10.7,3.2c-1.4,0.4-2.2,1.3-2.3,2.8c-0.1,2.4-0.2,6.4-0.2,12.1v48.9C431.5,256.8,431.6,261.8,431.7,264.7"/>
	<path id="XMLID_15_" class="st0" d="M471.4,179.1h19.3c11.3,0,23.2-0.1,35.6-0.3l0.7,0.6l-5,25.8l-3.6,0.6l-5.1-19h-33.5v35.3h4.7
		c4.4,0,9.3,0,14.7-0.1c1.7-0.1,2.7-0.8,3.2-2.3l2.5-10.3l4.7-0.1c-0.1,7-0.2,12.4-0.2,16.4c0,3.7,0.1,9.1,0.2,16.2l-4.7,0.4
		l-2.7-10.5c-0.4-1.5-1.4-2.3-2.9-2.4c-5.5,0-10.4-0.1-14.7-0.1h-4.8v18.6c0,6.4,0.1,12.7,0.2,18.9h34l10-21.1l3.9-0.5l-1.8,29.1
		l-0.5,0.5c-13.2-0.2-25.2-0.3-36.1-0.3h-17.8c-6,0-13.1,0.1-21.3,0.3l-0.4-3.8l10.5-3.1c1.4-0.5,2.2-1.4,2.3-2.8
		c0.1-2.4,0.2-6.4,0.2-12V204c0-7.2-0.1-12.2-0.2-15.1c-0.1-1.7-0.9-2.8-2.3-3.2l-10.5-3.2l-0.2-3.8
		C458.3,178.9,465.5,179.1,471.4,179.1"/>
	<path id="XMLID_14_" class="st0" d="M586.3,186.5c-5.1-1.7-9.6-2.5-13.7-2.5c-6.2,0-11.1,1.4-14.7,4.1c-3.6,2.7-5.4,6.4-5.4,11
		c0,2.8,0.6,5.2,1.7,7.3c1.1,2,2.7,3.8,4.8,5.4c2.1,1.6,4.6,3,7.5,4.3c2.9,1.3,6.2,2.6,9.8,4c3.5,1.4,6.9,2.9,10.1,4.4
		c3.2,1.5,6.1,3.3,8.5,5.4c2.5,2.1,4.5,4.5,6,7.3c1.5,2.8,2.2,6.2,2.2,10.2c0,9-4.1,16-12.4,21.1c-8.2,5.1-18.2,7.7-29.9,7.7
		c-7.5,0-16.6-1.6-27.3-4.9l-0.5-0.5l4-28.6l4-0.6l5.9,24.4c5.2,2,10.4,3,15.4,3c6.9,0,12.2-1.4,15.9-4.1c3.8-2.7,5.7-6.7,5.7-11.9
		c0-2.8-0.6-5.1-1.7-7.1c-1.1-1.9-2.7-3.7-4.7-5.2c-2-1.5-4.5-2.9-7.3-4.1c-2.9-1.2-6-2.5-9.5-4c-3.6-1.5-7.1-3-10.3-4.6
		c-3.3-1.6-6.2-3.4-8.7-5.6c-2.5-2.2-4.5-4.8-6.1-7.7c-1.5-2.9-2.3-6.5-2.3-10.8c0-8.6,3.8-15.2,11.5-19.9c7.7-4.7,16.9-7,27.6-7
		c8.6,0,17.6,1,27,3.1l0.5,0.7l-4.7,25.8l-3.5,0.5L586.3,186.5z"/>
	<path id="XMLID_13_" class="st0" d="M649.4,274.5c-7,0-14.5,0.1-22.4,0.3l-0.4-3.8l11.8-3.5c1.5-0.4,2.2-1.3,2.3-2.7
		c0.1-4.3,0.2-10,0.2-16.8v-61.5H616l-7.8,23.1l-3.5,0.7l-2.2-31.1l0.6-0.6c14.2,0.2,27.9,0.4,40.9,0.4h11.5c13,0,26.6-0.1,41-0.4
		l0.6,0.6l-5.5,30.4l-3.4,0.7l-5.5-23.8h-25v61.5c0,6.8,0.1,12.5,0.2,16.8c0.1,1.4,0.8,2.3,2.2,2.7L672,271l0.2,3.8
		C663.8,274.6,656.2,274.5,649.4,274.5"/>
	<path id="XMLID_12_" class="st0" d="M721.9,179.1h19.3c11.3,0,23.2-0.1,35.6-0.3l0.7,0.6l-5.1,25.8l-3.6,0.6l-5-19h-33.5v35.3h4.7
		c4.4,0,9.2,0,14.7-0.1c1.6-0.1,2.7-0.8,3.2-2.3l2.5-10.3l4.7-0.1c-0.1,7-0.2,12.4-0.2,16.4c0,3.7,0.1,9.1,0.2,16.2l-4.7,0.4
		l-2.7-10.5c-0.4-1.5-1.4-2.3-2.9-2.4c-5.4,0-10.3-0.1-14.7-0.1h-4.8v18.6c0,6.4,0.1,12.7,0.2,18.9h34l10-21.1l3.8-0.5l-1.8,29.1
		l-0.5,0.5c-13.2-0.2-25.2-0.3-36.1-0.3h-17.8c-6,0-13,0.1-21.3,0.3l-0.4-3.8l10.5-3.1c1.4-0.5,2.2-1.4,2.3-2.8
		c0.1-2.4,0.2-6.4,0.2-12V204c0-7.2-0.1-12.2-0.2-15.1c-0.1-1.7-0.9-2.8-2.3-3.2l-10.5-3.2l-0.2-3.8
		C708.9,178.9,716,179.1,721.9,179.1"/>
	<path class="st0" d="M813,247.9c0,3.5,0,6.6,0,9.4c0,2.8,0.1,5.3,0.1,7.5c0,1.8,0.8,2.9,2.3,3.4l9.6,2.9l0.2,3.8
		c-6.9-0.2-13.7-0.3-20.4-0.3c-6.9,0-14.1,0.1-21.4,0.3L783,271l10.7-3.1c1.5-0.5,2.3-1.4,2.4-2.7c0.1-2.3,0.1-4.9,0.1-7.8
		c0-2.9,0.1-6,0.1-9.5v-44.7c0-2.9,0-5.5-0.1-7.9c0-2.4-0.1-4.5-0.1-6.4c0-1.6-0.8-2.6-2.1-2.9l-10.7-3.4l-0.2-3.8
		c7.5,0.2,14.8,0.4,22,0.4c1.2,0,2.7,0,4.6-0.1c1.9-0.1,4.2-0.2,7-0.3c2.7-0.1,5-0.2,6.8-0.3c1.8-0.1,3.3-0.1,4.4-0.1
		c11.7,0,20.5,2,26.3,6.1c5.8,4,8.7,9.9,8.7,17.5c0,6.9-1.8,12.4-5.5,16.5c-3.7,4.1-9.2,7.3-16.5,9.7c4.1,5.9,7.6,11.4,10.7,16.3
		c3,4.9,5.7,9,8,12.3c2.3,3.3,4.4,5.9,6.2,7.9c1,1,2.1,1.9,3,2.6c1,0.7,2,1.3,3.1,1.8c1.1,0.5,2.2,0.9,3.3,1.2
		c1.1,0.4,2.4,0.7,3.8,1l0.5,3.9c-4.2,0.5-7.6,0.7-10.5,0.7c-2.4,0-4.5-0.1-6.3-0.2c-1.8-0.1-3.4-0.4-4.9-0.7
		c-1.4-0.3-2.7-0.7-3.9-1.3c-1.2-0.6-2.3-1.3-3.4-2.1c-2.4-1.8-4.8-4.4-7.1-7.8c-2.4-3.4-5-7.5-7.7-12.5c-2.7-5-5.4-9.4-7.9-13.2
		c-0.9-1.4-1.6-2.4-2.3-3.3c-0.6-0.8-1.3-1.5-2.1-1.9c-0.8-0.5-1.6-0.8-2.5-1c-0.9-0.2-2.2-0.3-3.9-0.4l-4.2-0.1V247.9z M813,224.6
		c2.7,0.2,5.3,0.3,7.8,0.3c8,0,13.8-1.6,17.5-4.9c3.7-3.2,5.6-8.3,5.6-15.2c0-6.7-1.8-11.6-5.3-14.7c-3.5-3.1-9.1-4.6-16.7-4.6
		c-1.3,0-2.7,0-4.1,0.2c-1.4,0.1-3,0.2-4.8,0.3V224.6z"/>
	<path class="st0" d="M277.4,354.1c0,3.3,0,6.2,0,8.8c0,2.6,0.1,4.9,0.1,7c0,1.3,0.6,2.1,1.8,2.5l9.7,3.4l0.1,3.5
		c-6.8-0.2-13.1-0.3-18.9-0.3c-6.8,0-13.6,0.1-20.6,0.3l-0.3-3.5l10-2.9c1.4-0.5,2.2-1.4,2.2-2.6c0.1-2.2,0.1-4.6,0.1-7.3
		c0-2.7,0.1-5.6,0.1-8.9v-41.8c0-2.7,0-5.1-0.1-7.4c0-2.2-0.1-4.2-0.1-6c-0.1-1.5-0.7-2.4-2-2.7l-10.1-3.2l-0.2-3.5
		c7,0.2,13.8,0.3,20.5,0.3c3.9,0,7.6-0.1,11.3-0.3c3.7-0.2,7-0.3,9.9-0.3c11.2,0,19.6,2,25.4,6.1c5.7,4.1,8.6,10.2,8.6,18.2
		c0,9.4-3.3,16.8-9.9,22c-6.6,5.2-15.7,7.8-27.5,7.8c-3.3,0-6.8-0.2-10.5-0.8V354.1z M278.4,336c2.9,0.5,5.8,0.8,8.6,0.8
		c6.6,0,11.6-1.7,15.1-5.1c3.5-3.4,5.2-8.7,5.2-15.7c0-6.8-1.7-11.9-4.9-15.2c-3.3-3.3-8.5-4.9-15.6-4.9c-2.8,0-5.6,0.1-8.5,0.4V336
		z"/>
	<path id="XMLID_7_" class="st0" d="M342.4,289.8c5.5,0,12.1-0.1,19.9-0.3l0.3,3.5l-9.9,3c-1.4,0.4-2.1,1.3-2.2,2.6
		c-0.1,2.2-0.2,6-0.2,11.3v44.1c0,6,0,11.8,0.1,17.7h31.9l10.2-21.1l3.7-0.5l-1.8,28.7l-0.7,0.5c-12.1-0.2-23.3-0.3-33.5-0.3h-17.6
		c-5.6,0-12.2,0.1-19.9,0.3l-0.4-3.5l9.9-2.9c1.3-0.5,2-1.3,2.1-2.7c0.1-2.2,0.2-6,0.2-11.3v-45.9c0-6.7-0.1-11.4-0.2-14.1
		c-0.1-1.6-0.8-2.6-2.1-3l-9.9-3l-0.2-3.5C330.2,289.7,336.9,289.8,342.4,289.8"/>
	<path class="st0" d="M423.2,370.2c0,0.9,0.2,1.6,0.8,2.1c0.5,0.5,1.3,0.9,2.2,1.2l7.6,2.1l0.2,3.7c-7.7-0.2-13.7-0.3-17.9-0.3
		c-5,0-10.5,0.1-16.5,0.3l-0.4-3.5l8.3-2.5c2-0.6,3.5-1.6,4.6-3c0.9-1.3,2-3.4,3.2-6.3l32.2-74.8l7.5-1.1l27.8,74.8
		c1.4,3.8,2.6,6.3,3.6,7.6c1.1,1.2,2.7,2.2,4.8,2.9l7.7,2.3l0.2,3.5c-7-0.2-13.6-0.3-19.7-0.3c-6.2,0-13.5,0.1-21.9,0.3l-0.3-3.5
		l7.6-2.3c1.1-0.3,1.9-0.7,2.4-1.2c0.5-0.5,0.7-1.2,0.7-2.2c0-1.1-0.3-2.5-0.9-4.3c-0.6-1.8-1.4-4.1-2.5-6.9l-3.9-10.6H431
		l-4.1,10.5c-1.2,3-2.1,5.4-2.8,7.2C423.5,367.8,423.2,369.2,423.2,370.2 M446.8,309.2L434.1,341h24.1L446.8,309.2z"/>
	<path id="XMLID_4_" class="st0" d="M561.1,317.9l-3.3,0.5l-5.9-21.4c-5.3-1.7-10.2-2.5-14.6-2.5c-10.4,0-18.6,3.5-24.6,10.5
		c-6,7-9,16.1-9,27.3c0,12,3.6,21.6,10.9,28.7c7.2,7.1,17.2,10.7,29.9,10.7c7.1,0,14.7-1.7,22.7-5l0.8,3.7c-9.2,7.3-19.6,11-31.4,11
		c-15.1,0-27.4-4.2-36.7-12.7c-9.4-8.4-14.1-19.6-14.1-33.3c0-14.7,5.2-26.3,15.4-34.9c10.3-8.6,23.7-12.9,40.1-12.9
		c7.8,0,15.9,1.1,24.2,3.3l0.5,0.6L561.1,317.9z"/>
	<path id="XMLID_3_" class="st0" d="M591.7,289.8h18.1c10.6,0,21.7-0.1,33.3-0.2l0.7,0.6l-4.7,24.1l-3.4,0.5l-4.7-17.8h-31.3v33h4.4
		c4.1,0,8.7,0,13.7-0.1c1.5,0,2.5-0.8,3-2.1l2.3-9.6l4.4-0.1c-0.1,6.5-0.2,11.6-0.2,15.3c0,3.5,0.1,8.5,0.2,15.1l-4.4,0.3l-2.5-9.8
		c-0.4-1.4-1.3-2.2-2.7-2.2c-5.1-0.1-9.7-0.1-13.8-0.1h-4.5v17.4c0,6,0.1,11.8,0.2,17.7h31.8l9.4-19.7l3.6-0.5l-1.7,27.2l-0.4,0.5
		c-12.3-0.2-23.6-0.3-33.8-0.3H592c-5.6,0-12.2,0.1-19.9,0.3l-0.4-3.5l9.9-2.9c1.3-0.5,2-1.3,2.1-2.7c0.1-2.2,0.2-6,0.2-11.3v-45.9
		c0-6.7-0.1-11.4-0.2-14.1c-0.1-1.6-0.8-2.6-2.1-3l-9.9-3l-0.2-3.5C579.5,289.7,586.1,289.8,591.7,289.8"/>
	<rect id="XMLID_2_" x="149.2" y="470.7" class="st0" width="297.8" height="1.3"/>
	<rect id="XMLID_1_" x="530.6" y="470.7" class="st0" width="199.4" height="1.3"/>
</g>
</svg>
