<?xml version="1.0" encoding="utf-8"?>
<!-- Generator: Adobe Illustrator 19.0.0, SVG Export Plug-In . SVG Version: 6.00 Build 0)  -->
<svg version="1.1" id="Layer_1" xmlns="http://www.w3.org/2000/svg" xmlns:xlink="http://www.w3.org/1999/xlink" x="0px" y="0px"
	 width="1688px" height="919.6px" viewBox="0 0 1688 919.6" style="enable-background:new 0 0 1688 919.6;" xml:space="preserve">
<style type="text/css">
	.st0{fill:#FFFFFF;}
	.st1{fill:#D1262B;}
</style>
<path class="st0" d="M352.2,840.4v37.7c-7.5,4.6-19.7,7.1-29,7.1c-26,0-41-18.5-41-40.2c0-22.7,16.5-40.2,39.9-40.2
	c14,0,22.6,3.8,28.5,10l-7.4,7.9c-6.3-6.1-13.5-8.1-21.2-8.1c-17.5,0-28.8,13.8-28.8,30.5c0,17.3,12.8,30.5,29.7,30.5
	c7.2,0,14.2-1.4,18.8-4v-21.3h-17v-9.7H352.2z"/>
<path class="st0" d="M364.3,844.9c0-22.7,16.5-40.2,39.9-40.2s39.9,17.5,39.9,40.2c0,22.7-16.5,40.2-39.9,40.2
	S364.3,867.7,364.3,844.9 M433,844.9c0-16.7-11.4-30.5-28.9-30.5s-28.9,13.8-28.9,30.5c0,16.8,11.4,30.5,28.9,30.5
	S433,861.7,433,844.9"/>
<polygon class="st0" points="456.9,806.7 467.3,806.7 467.3,873.5 502.4,873.5 502.4,883.2 456.9,883.2 "/>
<polygon class="st0" points="510.9,806.7 559,806.7 559,816.4 521.3,816.4 521.3,840.4 556.4,840.4 556.4,850.1 521.3,850.1 
	521.3,883.2 510.9,883.2 "/>
<path class="st0" d="M652.2,823.2c-4.3-5.6-11.5-8.8-18.5-8.8c-17.2,0-28.5,13.8-28.5,31.2c0,16.1,10.7,29.8,28.5,29.8
	c8.8,0,15.5-3.9,20-10.3l8.8,6.6c-2.3,3.1-11.5,13.4-29,13.4c-24.3,0-39.3-20.3-39.3-39.6c0-23.8,16.3-40.9,39.9-40.9
	c10.1,0,20.7,3.8,26.8,11.9L652.2,823.2z"/>
<polygon class="st0" points="672.9,806.7 683.3,806.7 683.3,873.5 718.4,873.5 718.4,883.2 672.9,883.2 "/>
<path class="st0" d="M735.9,806.7v46.9c0,9.5,4.8,21.8,19.3,21.8c14.5,0,19.2-12.3,19.2-21.8v-46.9h10.4v48.5
	c0,17.7-12.8,29.9-29.6,29.9c-16.8,0-29.6-12.2-29.6-29.9v-48.5H735.9z"/>
<path class="st0" d="M801,806.7h26.6c13.3,0,23.2,6.2,23.2,19.1c0,8.8-5.4,14.3-13.2,16.9v0.2c9.2,0.7,16.5,8.8,16.5,19
	c0,13.7-12,21.3-26.9,21.3H801V806.7z M811.3,838.5h14.2c7.9,0,14.3-3.1,14.3-11.4c0-6.1-3.8-11.3-12.1-11.3h-16.3V838.5z
	 M811.3,874.1h15.2c6.3,0,16.6-2.2,16.6-13c0-9.1-6.4-13.6-16.4-13.6h-15.4V874.1z"/>
<path class="st0" d="M1018.8,806.7h26.9c19.5,0,24.5,11.8,24.5,21.4c0,9.7-7.2,18.9-18.8,20.2l21.7,34.9h-13l-19.5-33.7h-11.6v33.7
	h-10.4V806.7z M1029.2,840.4h13.6c8.2,0,16.4-2,16.4-12.3c0-10.4-8.2-12.3-16.4-12.3h-13.6V840.4z"/>
<polygon class="st0" points="1082.8,806.7 1132.2,806.7 1132.2,816.4 1093.2,816.4 1093.2,839.2 1129.5,839.2 1129.5,849 
	1093.2,849 1093.2,873.5 1134.1,873.5 1134.1,883.2 1082.8,883.2 "/>
<path class="st0" d="M1149.1,867.2c3.7,5.6,10,8.2,16.2,8.2c6.8,0,15.2-4.3,15.2-12.8c0-17.6-37.7-6.7-37.7-36.5
	c0-9,7.6-21.4,25.9-21.4c8.3,0,16.3,1.7,22.1,8.8l-8.4,7.7c-2.6-4-7.6-6.7-13.6-6.7c-11.4,0-14.9,6.9-14.9,11.7
	c0,19.3,37.7,7.8,37.7,35.3c0,14.8-11.9,23.7-26.6,23.7c-9.8,0-19.2-3.4-24.4-10.6L1149.1,867.2z"/>
<path class="st0" d="M1200,844.9c0-22.7,16.5-40.2,39.9-40.2c23.3,0,39.9,17.5,39.9,40.2c0,22.7-16.5,40.2-39.9,40.2
	C1216.6,885.2,1200,867.7,1200,844.9 M1268.8,844.9c0-16.7-11.3-30.5-28.8-30.5c-17.5,0-28.8,13.8-28.8,30.5
	c0,16.8,11.3,30.5,28.8,30.5C1257.4,875.4,1268.8,861.7,1268.8,844.9"/>
<path class="st0" d="M1292.7,806.7h26.9c19.6,0,24.5,11.8,24.5,21.4c0,9.7-7.2,18.9-18.8,20.2l21.7,34.9h-13l-19.5-33.7H1303v33.7
	h-10.4V806.7z M1303,840.4h13.6c8.2,0,16.4-2,16.4-12.3c0-10.4-8.2-12.3-16.4-12.3H1303V840.4z"/>
<polygon class="st0" points="1370.7,816.4 1346.1,816.4 1346.1,806.7 1405.7,806.7 1405.7,816.4 1381.1,816.4 1381.1,883.2 
	1370.7,883.2 "/>
<path class="st0" d="M958.9,828.7c3.8,0.1,7.6,0.2,11.4,0.3c3.8,0.1,7.7,0.1,11.6,0.1c3.4,0,6.6-0.1,9.6-0.1c3-0.1,5.8-0.2,8.5-0.3
	l0.3,4.9l-12.6,3.5c-1.3,0.4-1.9,1.3-1.7,2.6c0.4,3.8,0.6,7.3,0.6,10.5c0,15.5-3.4,28.9-10.3,40.2c4.4,6.9,8.5,11.9,12.1,15.1
	c3.6,3.2,7.9,4.9,12.7,4.9c1.9,0,3.9-0.2,6.1-0.7l0.8,4.9c-5.9,3.4-12,5-18.4,5c-10.6,0-19.6-5-27.1-15c-12,9.7-25.4,14.6-40.2,14.6
	c-13.8,0-25.5-3.8-34.9-11.2c-9.4-7.5-14.2-17.6-14.2-30.4c0-17.3,9.7-31.7,29.2-43.1c-7.3-9.6-12-17.1-14-22.7
	c-2-5.5-3.1-11.2-3.1-17c0-10.7,3.7-19.3,11-25.7c7.3-6.4,16.4-9.7,27.3-9.7c9.6,0,17.6,2.7,24.1,8.2c6.5,5.4,9.8,12.9,9.8,22.5
	c0,15.5-10.3,28.6-30.8,39.3l42.9,52.4c4.4-8.7,6.6-18.7,6.6-29.8c0-4.6-0.2-8.3-0.6-11.1c-0.2-1.4-0.6-2.4-1.3-3
	c-0.6-0.6-1.6-1.1-2.9-1.3l-12.5-2.8L958.9,828.7z M909.7,840.9c-9.5,8.8-14.3,19.7-14.3,32.9c0,10.3,2.8,18.5,8.4,24.6
	c5.6,6.1,13.4,9.1,23.4,9.1c9.6,0,18.4-3.5,26.4-10.5L909.7,840.9z M921.4,823.6c9.4-9.4,14.2-20.3,14.2-32.8c0-6.7-1.3-12.1-4-16.2
	c-2.7-4.1-6-6.1-10.1-6.1c-4.2,0-7.6,1.8-10.2,5.3c-2.6,3.6-3.9,8.3-3.9,14.2c0,9.8,3.3,19.6,9.9,29.5L921.4,823.6z"/>
<rect x="285.8" y="781.3" class="st0" width="571.5" height="2.4"/>
<rect x="1017.7" y="781.3" class="st0" width="382.7" height="2.4"/>
<path class="st1" d="M1380.7,306.2c-14.9-1.1-148.7-9.4-118.1-6.9c16.1,2.3-52.9,6.2-53.9,5.7c-18.3-8-41.3,1.1-58.5-2.3
	c-34.4-6.9-66.5,1.1-99.8-1.2c-13.8-1.2-26.4-5.7-40.2-8c-1.1-1.1-3.4-3.4-4.6-4.6c-9.2-5.7-20.7,0-29.8-5.7
	c-11.5-5.7-25.2,2.3-34.4-6.9c-3.4-2.3-4.6-8-8-8c-13.8-2.3-29.8,1.1-39-11.5c-6.9-8-4.6-19.5-1.2-29.8c1.2-4.6,2.3-9.2,4.6-14.9
	c0-2.3,5.7-1.2,9.2-1.2c-2.3,1.2-1.2,3.4-1.2,4.6c6.9,0,14.9-2.3,19.5,1.2c5.7,3.4-1.2,14.9,5.7,16c13.7,3.4,28.7-6.9,40.2-1.1
	c8,3.4,14.9,17.2,21.8,11.4c3.4-2.3,9.2,0,10.3-5.7c27.5,1.2,53.9-6.9,81.4-4.6c-1.1,1.2,2.3,2.3,1.1,3.4c6.9,0,12.7,1.2,18.4-3.4
	c4.6-3.4,11.5-2.3,13.8,1.2c3.4,2.3,6.9,3.4,10.3,2.3c2.2-1.1,2.2-3.4,2.2-5.7c1.2-3.4,4.6-3.4,8-4.6c1.2-1.1,2.3-3.4,3.5-4.6
	c4.5-3.5,10.3,0,16.1-2.3c5.7-2.3,11.4-3.4,17.2-6.9c1.2,0,1.2-6.9,0-6.9c-4.6-2.3-12.6,1.2-14.9-2.3c-2.3-2.3-1.2-8-1.2-12.6
	c-10.3,1.1-20.6,0-26.4-6.9c-4.6-4.6,2.3-12.6,5.7-19.5h3.5c2.3-3.5,1.1-8.1-1.2-8.1c-8-1.1-19.5-3.4-16-13.7
	c-6.9,1.2-19.5-3.5-20.7,6.9c-9.2,0-20.6,3.4-25.2-2.3c-5.7-6.9,2.3-16,10.3-22.9c2.3-1.1,1.2-8-1.1-12.6
	c-3.5-4.6,1.1-13.8-3.5-19.5c-3.4-2.3-9.2,0-12.6-2.3c-5.8-5.7-9.2-13.8-13.8-19.5c-4.6-4.6-14.9,2.3-21.8-1.1c-1.1,0,1.2-4.6,0-6.9
	c-3.4-3.4-9.1,0-13.7-1.2c-2.3-2.3-4.6-5.7-4.6-9.2c-2.3,0-3.4-1.2-5.7,1.1c-6.9,5.7-16.1,2.3-22.9,8c-5.8,3.4-9.2,6.9-16.1,5.8
	c0,3.4,1.2,8,0,9.2c-4.5,3.4-11.5,2.3-14.9-2.3c-4.6-4.6,0-11.4-1.2-18.3c0-1.2,3.4-2.3,3.4-2.3c4.6-9.2-3.4-11.5-10.3-17.2
	c-1.1,0,1.1-4.6,0-6.9c-3.4-4.6-10.3-5.8-16-4.6v-4.6c-6.9-2.3-11.5,3.4-18.4,4.6c-17.2,3.4-34.4-1.2-51.6,2.3
	c-1.1,1.1-2.3,3.4-3.4,3.4c-3.4,3.5-9.2,1.2-12.6-1.1c-2.3-2.3-1.1-6.9-3.4-8c-4.6-4.6-11.5,6.9-18.3,1.1c-1.2-2.3-1.2-5.7-3.5-6.9
	c-3.4-1.2-9.2,1.1-11.5-1.2c-2.3-3.4,0-9.2-2.3-10.3c-5.7-2.3-12.6-1.2-18.3-1.2c1.1-2.3-2.3,0-2.3-2.3c-11.4,1.1-22.9-2.3-34.4,4.6
	c-5.7,3.4-5.7,16.3-10.3,19.8c-2.3,2.3-9.2-4.9-13.8-2.6c-4.6,3.5-8,6.9-14.9,4.6c-2.3-1.2,0-6.9-1.1-6.9c-8-3.4-10.3,5.8-11.5,12.6
	c-1.1,1.2-3.4,2.3-4.6,3.5c-1.2,5.7,2.3,13.7-1.2,16.1c-3.4,3.4-13.8,2.3-16-2.3c-2.3-4.6-1.2-10.3-1.2-16
	c-8,1.1-17.2,4.6-22.9,10.3c-1.2,2.3-8,0-8,1.2c-3.5,8,7.2,14.6,4.9,22.7c-1.2,5.7-15.2,8.3-19.8,10.6c-9.2,6.9-18.3,12.6-28.7,19.5
	c-4.6,3.4,1.2,11.5,0,17.2c-1.2,2.3-3.4,0-4.6,1.2c-1.2,3.4,3.4,10.9,2.3,14.3c-5.7,9.2-19.5,8.6-26.4,4c-4.6-2.3-9.2-5.7-14.9-4.6
	v3.5c-6.9,2.3-8-3.5-12.6-6.9c-3.4-3.4-10.3-2.3-14.9,2.3c-2.3,3.4-4.6,3.4-9.2,3.4c-1.2,0-1.2,2.3-1.2,3.4c-4.6,1.1-8,3.4-10.3,5.7
	c-1.1,2.3,0,5.7,0,9.2c8-1.1,17.2,0,21.8,3.5c5.7,3.4-3.4,10.3-10.3,11.5c-4.6,0-2.3,5.7-3.4,10.3h-3.4c-1.2,2.3,0,5.7,0,5.7
	c-9.2,2.3-17.2,0-26.4,2.3c-3.4,0-8,3.4-8,6.9c-3.4,10.3-14.9,11.4-22.9,10.3c0,4.6-2.3,11.5,1.1,12.6c4.6,2.3,11.5,0,17.2,2.3v5.7
	c10.3,0,20.7-1.2,30.9,3.4v2.3c4.6,0,14.9,2.3,14.9-5.7H539c0-4.6-1.2-11.5,3.4-12.6c8-2.3,13.7-5.7,20.6-4.6
	c-2.3,4.6-2.3,10.3,1.2,12.6c3.4,2.3,9.2,2.3,13.7,1.1c3.4-2.3,6.9-2.3,10.3-2.3c-1.2-3.4,4.6-3.4,3.4-6.9c5.7,0,11.5-1.2,17.2,0
	v3.4c-5.7,4.6-3.4,11.4-2.3,17.2h3.5c2.2,3.4,0,9.2,4.6,9.2c6.8,1.1,17.2,3.4,22.9-3.5c2.3-2.3,13.8-3.4,14.9,2.3
	c0,2.3-5.7,8.1-3.4,9.2c8,3.4,17.2,1.2,25.2-2.3c5.7-2.3,10.3-4.6,14.9-8c5.7-4.6,11.5,3.4,17.2,1.2c2.3,0,4.6,1.2,6.9,0
	c4.6-3.4,10.3-3.4,12.6-6.9c6.9-5.7,14.9-4.6,21.8-9.2c5.7-3.5,12.6-2.3,18.3,1.1c3.4,3.4,5.7,6.9,9.2,9.2c8,2.3,13.7,6.9,18.3,12.6
	c3.5,2.3-1.1,8-3.4,12.6c-5.8,9.2,9.2,14.9,12.6,21.8c3.4,6.9,2.3,17.2-5.7,18.3c-14.9,3.4-17.2,6.9-32.1,10.3
	c-8,1.1-26.4-4.6-34.4-2.3c-6.9,2.3-21.8,3.4-43.6,3.4c-1.6,0-29.2-0.6-56.2,0c-26.4,1.2-56.8,7.5-63.1,6.9
	c-27.6-2.5-61.4-4-89.5-3.4c-26.3,0.6-117,0-143.3,4.6c0,0,105.5-1.7,114.7-2.3c9.2-0.6,125,6.9,166.3,3.4
	c41.3-3.4,184.6-4.6,209.8-4.6c25.2,0,175.5-8,193.8-2.3c18.4,5.7,35.6,2.3,43.6,1.1c8-1.1,166.3-1.1,197.2-2.3
	C1291.3,308.5,1364.7,311.9,1380.7,306.2"/>
<path class="st0" d="M93.7,506.3c0,10.8,0,20.5,0.1,29.1c0.1,8.7,0.2,16.4,0.4,23.4c0.2,5.6,2.5,9.1,7,10.5l29.9,8.9l0.8,11.6
	c-21.4-0.5-42.7-0.8-64.1-0.8c-21.8,0-44,0.3-66.8,0.8L0,578.2l33.1-10c4.5-1.3,6.9-4.1,7.3-8.4c0.2-7.2,0.3-15.2,0.4-24.1
	c0.1-8.9,0.1-18.7,0.1-29.5V287.8c0-9.2,0-17.4-0.1-24.8c-0.1-7.3-0.2-14-0.4-19.9c-0.2-4.6-2.3-7.7-6.5-9.2L0.5,223.5L0,211.9
	c23.2,0.7,45.8,1.1,67.9,1.1c4.4,0,9.9-0.2,16.6-0.4c6.7-0.3,14.9-0.6,24.5-1c9.8-0.3,17.9-0.6,24.5-0.8c6.5-0.2,11.7-0.3,15.5-0.3
	c41.4,0,72.4,7.7,93.1,23.2c20.7,15.5,31,38,31,67.6c0,26.8-7.1,48.4-21.3,65c-14.2,16.6-35.8,29.4-65,38.4
	c11.5,17.2,22,33.9,31.7,50c9.6,16.1,18.6,30.8,26.9,44.2c8.3,13.4,15.8,25.2,22.7,35.4c6.9,10.2,13.3,18.3,19.2,24.2
	c3,3.1,6.1,5.7,9.2,8c3.1,2.2,6.2,4.1,9.6,5.5c3.3,1.4,6.8,2.7,10.5,3.8c3.7,1.1,7.8,2.2,12.3,3.2l0.8,11.9
	c-12.9,1.6-23.8,2.4-32.6,2.4c-7.4,0-13.9-0.2-19.4-0.5c-5.6-0.4-10.6-1.1-14.9-2.1c-4.4-1.1-8.3-2.5-11.9-4.2
	c-3.6-1.7-7.1-3.9-10.5-6.6c-7.5-5.5-14.8-13.6-22-24.1c-7.2-10.5-14.6-22.4-22.4-35.7c-7.7-13.3-15.8-27.4-24.2-42.4
	c-8.4-15-17.2-29.6-26.5-44c-2.7-4.3-5-7.7-7-10.2c-1.9-2.5-4-4.5-6.3-5.9c-2.3-1.5-4.9-2.4-7.9-3c-3-0.6-6.9-0.9-11.6-1.1
	l-18.9-0.5V506.3z M93.7,392.6c11,0.5,21.1,0.8,30.5,0.8c31.1,0,53.8-6.6,68.3-19.8c14.5-13.2,21.7-33.9,21.7-62.1
	c0-27.3-6.9-47.2-20.7-59.8c-13.8-12.5-35.5-18.8-64.9-18.8c-5,0-10.4,0.2-16.2,0.5c-5.7,0.4-11.9,0.9-18.6,1.6V392.6z"/>
<path class="st0" d="M453.2,431.4c0,30.3-9.1,54.6-27.3,72.9c-18.1,18.3-43.5,27.4-76,27.4c-30.9,0-54.9-8.5-71.8-25.4
	c-17-16.9-25.5-39.8-25.5-68.7c0-30.2,9.2-54.1,27.5-71.8c18.3-17.7,43.6-26.6,75.8-26.6c31,0,55,8.3,71.9,24.8
	C444.7,380.5,453.2,403,453.2,431.4 M289.2,433.2c0,27.5,5.5,48.6,16.6,63.2c11,14.6,27.3,21.9,48.8,21.9c21.2,0,36.7-6.6,46.8-19.9
	c10-13.3,15.1-34.1,15.1-62.6c0-26.6-5.3-47-16-61.4c-10.6-14.4-27-21.6-49.3-21.6c-21.7,0-37.5,6.6-47.3,19.9
	C294.2,386,289.2,406.2,289.2,433.2"/>
<path class="st0" d="M621.1,401.3l-6.7,1l-12.2-43.9c-10.9-3.4-20.9-5.1-29.9-5.1c-21.4,0-38.3,7.2-50.6,21.6
	c-12.3,14.4-18.5,33.1-18.5,56c0,24.7,7.4,44.3,22.3,59c14.9,14.6,35.4,21.9,61.4,21.9c14.7,0,30.3-3.4,46.7-10.2l1.6,7.6
	c-18.8,15-40.3,22.5-64.3,22.5c-31,0-56.2-8.7-75.4-26c-19.3-17.3-28.9-40.2-28.9-68.5c0-30.1,10.6-53.9,31.7-71.6
	c21.2-17.6,48.6-26.4,82.3-26.4c16.1,0,32.7,2.3,49.7,6.9l1.1,1.2L621.1,401.3z"/>
<path class="st0" d="M828.5,507.9c0.2,3.2,1.7,5.2,4.4,6.1l20.4,6l0.4,7.2c-16.2-0.4-30-0.5-41.2-0.5c-11.5,0-24.2,0.2-38.1,0.5
	l-0.7-7.2l17.6-5.1c2.7-1,4.1-2.8,4.4-5.5c0.2-4.5,0.3-12.2,0.3-23.1v-49.2H700v42.3c0,14.1,0.1,23.9,0.4,29.3
	c0.2,3.2,1.8,5.2,4.6,6.2l17.4,5.1l0.4,7.2c-14.2-0.4-27-0.5-38.4-0.5c-11.4,0-25,0.2-40.8,0.5l-0.7-7.2l20.3-6
	c2.7-0.9,4.1-2.7,4.4-5.4c0.2-4.6,0.4-12.3,0.4-23.1v-94.1c0-13.8-0.1-23.5-0.4-28.9c-0.3-3.3-1.7-5.4-4.4-6.2l-20.3-6.2l-0.4-7.2
	c16.1,0.4,29.8,0.7,41.2,0.7c11.3,0,24-0.3,38-0.7l0.7,7.2l-17.4,5.3c-2.8,0.8-4.4,2.6-4.6,5.3c-0.2,4.6-0.4,12.3-0.4,23.1v37.9H796
	v-31c0-14-0.1-23.7-0.3-29.3c-0.3-3.1-1.7-5.2-4.4-6l-17.6-5.3l-0.4-7.2c14.3,0.4,27.1,0.7,38.4,0.7c11.4,0,25-0.3,40.8-0.7l0.9,7.2
	l-20.4,6.2c-2.7,0.8-4.2,2.6-4.4,5.3c-0.2,4.6-0.4,12.3-0.4,23.3v93.8C828.1,492.8,828.2,502.5,828.5,507.9"/>
<path class="st0" d="M904.7,343.7h37.1c21.8,0,44.6-0.2,68.4-0.5l1.4,1.2l-9.7,49.5L995,395l-9.7-36.5H921v67.7h9
	c8.4,0,17.8,0,28.2-0.2c3.2-0.1,5.2-1.6,6.1-4.4l4.8-19.8l9-0.2c-0.2,13.4-0.3,23.8-0.3,31.4c0,7.2,0.1,17.5,0.3,31l-9,0.7
	l-5.1-20.1c-0.8-2.9-2.7-4.5-5.7-4.6c-10.5-0.1-19.9-0.2-28.2-0.2H921v35.8c0,12.2,0.1,24.3,0.3,36.3h65.2l19.2-40.5l7.4-1.1
	l-3.5,55.9l-0.9,1c-25.3-0.3-48.4-0.5-69.3-0.5h-34.1c-11.5,0-25.1,0.2-40.8,0.5l-0.7-7.2l20.2-6c2.7-0.9,4.2-2.7,4.4-5.5
	c0.2-4.6,0.4-12.3,0.4-23.1v-94.1c0-13.8-0.1-23.5-0.4-28.9c-0.2-3.3-1.7-5.4-4.4-6.2l-20.2-6.1l-0.4-7.2
	C879.6,343.4,893.3,343.7,904.7,343.7"/>
<path class="st0" d="M1125.2,357.9c-9.7-3.2-18.5-4.7-26.3-4.7c-12,0-21.4,2.6-28.3,7.9c-6.9,5.3-10.3,12.3-10.3,21.1
	c0,5.4,1.1,10,3.2,14c2.2,3.8,5.2,7.3,9.2,10.3c4,3,8.8,5.7,14.4,8.2c5.6,2.5,11.9,5.1,18.8,7.7c6.7,2.7,13.2,5.5,19.4,8.5
	c6.1,2.9,11.6,6.4,16.4,10.4c4.8,4,8.6,8.7,11.4,14c2.9,5.3,4.3,11.9,4.3,19.6c0,17.2-7.9,30.7-23.7,40.6
	c-15.8,9.9-34.9,14.8-57.4,14.8c-14.5,0-31.9-3.1-52.4-9.3l-0.9-1.1l7.7-54.8l7.6-1.1l11.3,46.9c10,3.9,19.9,5.8,29.6,5.8
	c13.2,0,23.4-2.6,30.6-7.8c7.2-5.2,10.9-12.8,10.9-22.8c0-5.3-1.1-9.8-3.3-13.6c-2.2-3.7-5.2-7.1-9.1-10c-3.9-3-8.6-5.6-14.1-7.9
	c-5.5-2.3-11.6-4.8-18.2-7.7c-6.9-2.8-13.5-5.7-19.8-8.7c-6.3-3-11.8-6.6-16.7-10.8s-8.7-9.2-11.6-14.8c-2.9-5.7-4.4-12.6-4.4-20.8
	c0-16.4,7.4-29.2,22.1-38.1c14.7-9,32.4-13.5,53-13.5c16.4,0,33.7,2,51.8,6l1.1,1.4l-9,49.5l-6.7,1.1L1125.2,357.9z"/>
<path class="st0" d="M1246.3,526.8c-13.4,0-27.8,0.2-43.1,0.5l-0.7-7.2l22.7-6.7c2.8-0.7,4.3-2.4,4.4-5.1c0.2-8.3,0.4-19.1,0.4-32.2
	V358.1h-47.8l-15,44.4l-6.7,1.3l-4.2-59.6l1.1-1.2c27.3,0.4,53.5,0.7,78.5,0.7h22c24.9,0,51.1-0.3,78.7-0.7l1.1,1.2l-10.6,58.3
	l-6.5,1.3l-10.6-45.7h-48V476c0,13.1,0.1,23.9,0.4,32.2c0.1,2.7,1.5,4.4,4.2,5.1l22.9,6.7l0.4,7.2
	C1273.9,527,1259.4,526.8,1246.3,526.8"/>
<path class="st0" d="M1385.5,343.7h37.1c21.7,0,44.5-0.2,68.4-0.5l1.4,1.2l-9.7,49.5l-6.9,1.1l-9.7-36.5h-64.3v67.7h9
	c8.4,0,17.7,0,28.2-0.2c3.2-0.1,5.2-1.6,6.2-4.4l4.8-19.8l9-0.2c-0.2,13.4-0.4,23.8-0.4,31.4c0,7.2,0.1,17.5,0.4,31l-9,0.7
	l-5.1-20.1c-0.8-2.9-2.7-4.5-5.6-4.6c-10.4-0.1-19.9-0.2-28.2-0.2h-9.2v35.8c0,12.2,0.1,24.3,0.4,36.3h65.2l19.2-40.5l7.4-1.1
	l-3.5,55.9l-0.9,1c-25.3-0.3-48.3-0.5-69.2-0.5h-34.1c-11.4,0-25,0.2-40.8,0.5l-0.7-7.2l20.2-6c2.7-0.9,4.2-2.7,4.4-5.5
	c0.2-4.6,0.4-12.3,0.4-23.1v-94.1c0-13.8-0.1-23.5-0.4-28.9c-0.2-3.3-1.7-5.4-4.4-6.2l-20.2-6.1l-0.4-7.2
	C1360.4,343.4,1374.1,343.7,1385.5,343.7"/>
<path class="st0" d="M1560.2,475.7c0,6.7,0,12.7,0.1,18c0.1,5.3,0.1,10.1,0.3,14.4c0,3.4,1.5,5.6,4.4,6.5l18.5,5.5l0.4,7.2
	c-13.3-0.4-26.4-0.5-39.2-0.5c-13.2,0-27,0.2-41.2,0.5l-0.7-7.2l20.5-6c2.8-0.9,4.4-2.7,4.6-5.3c0.1-4.5,0.2-9.4,0.3-14.9
	c0.1-5.5,0.1-11.6,0.1-18.2v-85.9c0-5.5,0-10.6-0.1-15.2c0-4.6-0.2-8.7-0.3-12.3c-0.1-3.1-1.4-4.9-4-5.6l-20.6-6.5l-0.4-7.2
	c14.4,0.4,28.4,0.7,42.2,0.7c2.3,0,5.2-0.1,8.9-0.3c3.7-0.2,8.2-0.4,13.4-0.6c5.2-0.2,9.6-0.4,13.1-0.5c3.5-0.1,6.3-0.2,8.5-0.2
	c22.5,0,39.3,3.9,50.5,11.7c11.2,7.7,16.8,19,16.8,33.7c0,13.3-3.5,23.8-10.5,31.6c-7,7.8-17.6,14-31.6,18.6
	c7.8,11.4,14.6,21.8,20.5,31.2c5.8,9.4,11,17.3,15.4,23.6c4.5,6.3,8.4,11.4,12,15.2c2,2,3.9,3.7,5.8,5c1.9,1.4,3.9,2.5,5.9,3.4
	c2.1,0.9,4.2,1.7,6.3,2.3c2.2,0.7,4.6,1.4,7.3,2l0.9,7.4c-8,0.9-14.7,1.4-20.1,1.4c-4.6,0-8.6-0.2-12-0.4c-3.5-0.3-6.6-0.7-9.3-1.3
	c-2.8-0.6-5.3-1.4-7.5-2.5c-2.2-1.1-4.4-2.4-6.6-4.1c-4.6-3.5-9.2-8.5-13.7-15c-4.6-6.5-9.5-14.5-14.8-24.1
	c-5.3-9.6-10.3-18-15.1-25.3c-1.7-2.6-3.1-4.7-4.3-6.3c-1.2-1.6-2.5-2.8-4-3.7c-1.4-0.9-3.1-1.5-4.8-1.8c-1.8-0.4-4.3-0.6-7.4-0.7
	l-8.1-0.2V475.7z M1560.2,431.1c5.2,0.3,10.2,0.5,14.9,0.5c15.3,0,26.5-3.1,33.6-9.4c7.1-6.2,10.7-16,10.7-29.3
	c0-12.8-3.4-22.2-10.2-28.1c-6.7-5.9-17.4-8.9-32-8.9c-2.5,0-5.1,0.1-7.9,0.3c-2.8,0.1-5.8,0.4-9.1,0.6V431.1z"/>
<path class="st0" d="M532.4,679.6c0,6.3,0,11.9,0.1,16.8c0.1,5,0.1,9.4,0.3,13.4c0,2.4,1.2,4,3.5,4.8l18.6,6.6l0.2,6.7
	c-13.1-0.3-25.2-0.5-36.2-0.5c-13,0-26.2,0.2-39.4,0.5l-0.7-6.7l19.1-5.6c2.7-1,4.2-2.6,4.3-4.9c0.1-4.2,0.2-8.8,0.2-13.9
	c0.1-5.1,0.1-10.8,0.1-17.1v-80.2c0-5.2,0-9.9-0.1-14.2c0-4.3-0.1-8.1-0.2-11.5c-0.1-2.9-1.4-4.6-3.8-5.3l-19.3-6.1l-0.3-6.7
	c13.4,0.4,26.5,0.6,39.4,0.6c7.4,0,14.7-0.2,21.7-0.6c7.1-0.4,13.4-0.6,19.1-0.6c21.4,0,37.7,3.9,48.7,11.8
	c11,7.8,16.5,19.5,16.5,35c0,18.1-6.3,32.2-19,42.2c-12.6,10-30.2,15-52.7,15c-6.3,0-13-0.5-20.1-1.4V679.6z M534.2,644.9
	c5.6,1,11.1,1.5,16.6,1.5c12.7,0,22.3-3.3,29-9.9c6.7-6.6,10.1-16.6,10.1-30.1c0-13.1-3.2-22.8-9.5-29.1c-6.3-6.3-16.3-9.5-30-9.5
	c-5.4,0-10.8,0.3-16.3,0.8V644.9z"/>
<path class="st0" d="M657.1,556.2c10.6,0,23.3-0.2,38.2-0.6l0.7,6.7l-19,5.8c-2.6,0.8-4.1,2.4-4.3,5c-0.2,4.3-0.3,11.5-0.3,21.7
	v84.7c0,11.4,0.1,22.7,0.2,34h61.3l19.6-40.5l7.1-1l-3.5,55l-1.3,1c-23.3-0.4-44.7-0.5-64.3-0.5h-33.7c-10.7,0-23.4,0.2-38.1,0.5
	l-0.7-6.8l19-5.6c2.5-0.9,3.9-2.6,4.1-5.1c0.2-4.3,0.3-11.5,0.3-21.6v-88c0-12.9-0.1-22-0.3-27c-0.2-3.1-1.6-5-4.1-5.8l-19-5.8
	l-0.3-6.7C633.7,556,646.5,556.2,657.1,556.2"/>
<path class="st0" d="M812.1,710.5c0,1.8,0.5,3.1,1.5,4c1,0.9,2.4,1.7,4.3,2.2l14.7,4.1l0.3,7.1c-14.8-0.3-26.3-0.5-34.4-0.5
	c-9.6,0-20.1,0.2-31.7,0.5l-0.8-6.7l16-4.8c3.8-1.2,6.8-3.1,8.9-5.8c1.8-2.4,3.8-6.4,6.1-12l61.8-143.5l14.5-2.1l53.4,143.5
	c2.6,7.3,4.9,12.1,6.9,14.7c2.1,2.4,5.1,4.3,9.2,5.6l14.8,4.4l0.3,6.7c-13.5-0.3-26.1-0.5-37.7-0.5c-12,0-26,0.2-42,0.5l-0.5-6.7
	l14.6-4.4c2.1-0.6,3.6-1.3,4.5-2.2c0.9-0.9,1.4-2.3,1.4-4.2c0-2.1-0.6-4.8-1.7-8.3c-1.1-3.4-2.7-7.9-4.8-13.3l-7.4-20.3h-57.2
	l-7.9,20.1c-2.3,5.8-4.1,10.4-5.3,13.8C812.7,705.8,812.1,708.5,812.1,710.5 M857.4,593.5l-24.3,61h46.3L857.4,593.5z"/>
<path class="st0" d="M1076.8,610.1l-6.3,1l-11.4-41c-10.2-3.2-19.5-4.8-28-4.8c-20,0-35.8,6.7-47.3,20.2
	c-11.5,13.4-17.3,30.9-17.3,52.3c0,23.1,6.9,41.4,20.8,55.1c13.9,13.7,33,20.5,57.4,20.5c13.7,0,28.3-3.2,43.6-9.5l1.5,7.1
	c-17.6,14.1-37.6,21.1-60.2,21.1c-29,0-52.5-8.1-70.5-24.3c-18-16.2-27-37.5-27-64c0-28.1,9.9-50.4,29.6-66.9
	c19.8-16.5,45.5-24.7,77-24.7c15,0,30.5,2.1,46.5,6.4l1,1.2L1076.8,610.1z"/>
<path class="st0" d="M1135.5,556.2h34.7c20.3,0,41.6-0.2,63.9-0.5l1.3,1.1l-9,46.3l-6.4,1l-9.1-34.1h-60.1v63.3h8.4
	c7.8,0,16.6-0.1,26.4-0.2c3-0.1,4.9-1.5,5.7-4.1l4.4-18.4l8.4-0.2c-0.2,12.5-0.3,22.3-0.3,29.3c0,6.7,0.1,16.3,0.3,29l-8.4,0.7
	l-4.8-18.8c-0.8-2.8-2.5-4.2-5.3-4.3c-9.8-0.1-18.6-0.2-26.4-0.2h-8.6v33.4c0,11.4,0.1,22.7,0.3,34h61l18-37.9l6.9-1l-3.3,52.2
	l-0.8,1c-23.6-0.4-45.2-0.5-64.8-0.5h-31.9c-10.7,0-23.4,0.2-38.1,0.5l-0.7-6.8l19-5.6c2.5-0.9,3.9-2.6,4.1-5.1
	c0.2-4.3,0.3-11.5,0.3-21.6v-88c0-12.9-0.1-22-0.3-27c-0.2-3.1-1.6-5-4.1-5.8l-19-5.8l-0.3-6.7C1112,556,1124.9,556.2,1135.5,556.2"
	/>
<rect x="286.3" y="903.2" class="st0" width="571.5" height="2.4"/>
<rect x="1018.2" y="903.2" class="st0" width="382.7" height="2.4"/>
</svg>
